<svg width="24" height="25" viewBox="0 0 24 25" fill="none" xmlns="http://www.w3.org/2000/svg">
<path d="M20.2622 9.23981C20.7872 9.23981 21.2416 9.44749 21.6253 9.86286C22.009 10.2782 22.2008 10.7701 22.2008 11.3385V19.7333C22.2008 20.3017 22.009 20.7936 21.6253 21.209C21.2416 21.6243 20.7872 21.832 20.2622 21.832H16.385C15.8599 21.832 15.4056 21.6243 15.0219 21.209C14.6382 20.7936 14.4464 20.3017 14.4464 19.7333V11.3385C14.4464 10.7701 14.6382 10.2782 15.0219 9.86286C15.4056 9.44749 15.8599 9.23981 16.385 9.23981H20.2622ZM21.2315 19.7333V11.3385C21.2315 11.0543 21.1305 10.8138 20.9286 10.6171C20.7469 10.3985 20.5247 10.2892 20.2622 10.2892H16.385C16.1225 10.2892 15.8902 10.3985 15.6883 10.6171C15.5066 10.8138 15.4157 11.0543 15.4157 11.3385V19.7333C15.4157 20.0175 15.5066 20.258 15.6883 20.4547C15.8902 20.6734 16.1225 20.7827 16.385 20.7827H20.2622C20.5247 20.7827 20.7469 20.6734 20.9286 20.4547C21.1305 20.258 21.2315 20.0175 21.2315 19.7333ZM5.72262 6.14114V14.4866H12.9924C13.1338 14.4866 13.2448 14.5412 13.3256 14.6505C13.4266 14.738 13.4771 14.8582 13.4771 15.0112C13.4771 15.1643 13.4266 15.2954 13.3256 15.4047C13.2448 15.4922 13.1338 15.5359 12.9924 15.5359H3.78401C3.78401 15.8201 3.87488 16.0715 4.05663 16.2901C4.25857 16.4869 4.4908 16.5853 4.75332 16.5853H12.9924C13.1338 16.5853 13.2448 16.6399 13.3256 16.7492C13.4266 16.8367 13.4771 16.9569 13.4771 17.1099C13.4771 17.263 13.4266 17.3941 13.3256 17.5034C13.2448 17.5909 13.1338 17.6346 12.9924 17.6346H4.75332C4.20808 17.6346 3.74362 17.4269 3.35994 17.0116C2.99645 16.5962 2.8147 16.1043 2.8147 15.5359V15.0112C2.8147 14.8582 2.85509 14.738 2.93587 14.6505C3.03684 14.5412 3.158 14.4866 3.29936 14.4866H4.75332V6.14114C4.75332 5.57274 4.94516 5.08085 5.32884 4.66549C5.71252 4.25012 6.16689 4.04243 6.69193 4.04243H16.385C16.91 4.04243 17.3644 4.25012 17.7481 4.66549C18.1318 5.08085 18.3236 5.57274 18.3236 6.14114V6.66581C18.3236 6.81884 18.2731 6.95001 18.1721 7.05932C18.0914 7.14676 17.9803 7.19049 17.8389 7.19049C17.6976 7.19049 17.5764 7.14676 17.4755 7.05932C17.3947 6.95001 17.3543 6.81884 17.3543 6.66581V6.14114C17.3543 5.85694 17.2533 5.61646 17.0514 5.41971C16.8696 5.20109 16.6475 5.09179 16.385 5.09179H6.69193C6.42941 5.09179 6.19718 5.20109 5.99524 5.41971C5.81349 5.61646 5.72262 5.85694 5.72262 6.14114Z" fill="#444546"/>
<path fill-rule="evenodd" clip-rule="evenodd" d="M20.8566 10.6873C20.6925 10.4899 20.4962 10.3941 20.2622 10.3941H16.385C16.1506 10.3941 15.9424 10.4904 15.7568 10.6913C15.5937 10.8679 15.5126 11.0815 15.5126 11.3385V19.7333C15.5126 19.9903 15.5937 20.2039 15.7568 20.3805C15.9424 20.5814 16.1506 20.6777 16.385 20.6777H20.2622C20.4962 20.6777 20.6925 20.5819 20.8566 20.3845L20.8634 20.3763C21.0457 20.1987 21.1346 19.9866 21.1346 19.7333V11.3385C21.1346 11.0852 21.0461 10.8727 20.8638 10.6951L20.8566 10.6873ZM3.28957 17.0837C2.90915 16.649 2.71777 16.1314 2.71777 15.5359V15.0112C2.71777 14.8374 2.76426 14.6879 2.86733 14.5763C2.98627 14.4476 3.132 14.3816 3.29936 14.3816H4.65638V6.14114C4.65638 5.54388 4.85912 5.0256 5.2603 4.59129C5.66148 4.15698 6.14023 3.9375 6.69193 3.9375H16.385C16.9367 3.9375 17.4154 4.15698 17.8166 4.59129C18.2178 5.0256 18.4205 5.54388 18.4205 6.14114V6.66581C18.4205 6.84699 18.3596 7.00476 18.2407 7.13352C18.1376 7.2451 17.9995 7.29542 17.8389 7.29542C17.6778 7.29542 17.5347 7.245 17.4149 7.14126L17.4065 7.13397L17.3998 7.12487C17.3039 6.99519 17.2574 6.8403 17.2574 6.66581V6.14114C17.2574 5.88784 17.1689 5.67535 16.9865 5.49771L16.9789 5.4903C16.8148 5.29292 16.619 5.19672 16.385 5.19672H6.69193C6.4575 5.19672 6.2493 5.29307 6.06378 5.49391C5.90064 5.67052 5.81955 5.8841 5.81955 6.14114V14.3816H12.9924C13.1564 14.3816 13.294 14.4453 13.3945 14.5759C13.5152 14.6847 13.574 14.8338 13.574 15.0112C13.574 15.1924 13.5131 15.3502 13.3942 15.4789C13.2911 15.5905 13.153 15.6408 12.9924 15.6408H3.88561C3.90491 15.8536 3.98405 16.0444 4.12527 16.2158C4.30916 16.3934 4.51727 16.4803 4.75332 16.4803H12.9924C13.1564 16.4803 13.294 16.544 13.3945 16.6746C13.5152 16.7834 13.574 16.9325 13.574 17.1099C13.574 17.2911 13.5131 17.4489 13.3942 17.5776C13.2911 17.6892 13.153 17.7395 12.9924 17.7395H4.75332C4.18251 17.7395 3.69336 17.5209 3.2914 17.0858L3.28957 17.0837ZM13.3256 16.7492C13.2448 16.6399 13.1338 16.5853 12.9924 16.5853H4.75332C4.4908 16.5853 4.25857 16.4869 4.05663 16.2901C3.89758 16.0988 3.80812 15.8824 3.78826 15.6408C3.78543 15.6064 3.78401 15.5714 3.78401 15.5359H12.9924C13.1338 15.5359 13.2448 15.4922 13.3256 15.4047C13.4266 15.2954 13.4771 15.1643 13.4771 15.0112C13.4771 14.8582 13.4266 14.738 13.3256 14.6505C13.2448 14.5412 13.1338 14.4866 12.9924 14.4866H5.72262V6.14114C5.72262 5.85694 5.81349 5.61646 5.99524 5.41971C6.19718 5.20109 6.42941 5.09179 6.69193 5.09179H16.385C16.6475 5.09179 16.8696 5.20109 17.0514 5.41971C17.2533 5.61646 17.3543 5.85694 17.3543 6.14114V6.66581C17.3543 6.81884 17.3947 6.95001 17.4755 7.05932C17.5764 7.14676 17.6976 7.19049 17.8389 7.19049C17.9803 7.19049 18.0914 7.14676 18.1721 7.05932C18.2731 6.95001 18.3236 6.81884 18.3236 6.66581V6.14114C18.3236 5.57274 18.1318 5.08085 17.7481 4.66549C17.3644 4.25012 16.91 4.04243 16.385 4.04243H6.69193C6.16689 4.04243 5.71252 4.25012 5.32884 4.66549C4.94516 5.08085 4.75332 5.57274 4.75332 6.14114V14.4866H3.29936C3.158 14.4866 3.03684 14.5412 2.93587 14.6505C2.85509 14.738 2.8147 14.8582 2.8147 15.0112V15.5359C2.8147 16.1043 2.99645 16.5962 3.35994 17.0116C3.74362 17.4269 4.20808 17.6346 4.75332 17.6346H12.9924C13.1338 17.6346 13.2448 17.5909 13.3256 17.5034C13.4266 17.3941 13.4771 17.263 13.4771 17.1099C13.4771 16.9569 13.4266 16.8367 13.3256 16.7492ZM20.2622 9.13487C20.8139 9.13487 21.2927 9.35435 21.6938 9.78866C22.095 10.223 22.2978 10.7413 22.2978 11.3385V19.7333C22.2978 20.3306 22.095 20.8489 21.6938 21.2832C21.2927 21.7175 20.8139 21.9369 20.2622 21.9369H16.385C15.8333 21.9369 15.3545 21.7175 14.9534 21.2832C14.5522 20.8489 14.3494 20.3306 14.3494 19.7333V11.3385C14.3494 10.7413 14.5522 10.223 14.9534 9.78866C15.3545 9.35435 15.8333 9.13487 16.385 9.13487H20.2622ZM21.6253 9.86286C21.2416 9.44749 20.7872 9.23981 20.2622 9.23981H16.385C15.8599 9.23981 15.4056 9.44749 15.0219 9.86286C14.6382 10.2782 14.4464 10.7701 14.4464 11.3385V19.7333C14.4464 20.3017 14.6382 20.7936 15.0219 21.209C15.4056 21.6243 15.8599 21.832 16.385 21.832H20.2622C20.7872 21.832 21.2416 21.6243 21.6253 21.209C22.009 20.7936 22.2008 20.3017 22.2008 19.7333V11.3385C22.2008 10.7701 22.009 10.2782 21.6253 9.86286ZM21.2315 11.3385V19.7333C21.2315 20.0175 21.1305 20.258 20.9286 20.4547C20.7469 20.6734 20.5247 20.7827 20.2622 20.7827H16.385C16.1225 20.7827 15.8902 20.6734 15.6883 20.4547C15.5066 20.258 15.4157 20.0175 15.4157 19.7333V11.3385C15.4157 11.0543 15.5066 10.8138 15.6883 10.6171C15.8902 10.3985 16.1225 10.2892 16.385 10.2892H20.2622C20.5247 10.2892 20.7469 10.3985 20.9286 10.6171C21.1305 10.8138 21.2315 11.0543 21.2315 11.3385Z" fill="#444546"/>
<path d="M12.5574 8.89811C12.6834 8.91941 12.7662 8.99754 12.806 9.13247C12.8524 9.26741 12.8259 9.3846 12.7265 9.48403L11.6723 10.5813L11.9209 12.1366C11.9408 12.2432 11.9176 12.3355 11.8513 12.4136C11.785 12.4917 11.7054 12.5308 11.6126 12.5308C11.5596 12.5308 11.5098 12.5166 11.4634 12.4882L10.1606 11.7638L8.85779 12.4882C8.81138 12.5166 8.76165 12.5308 8.70861 12.5308C8.64894 12.5308 8.59258 12.5131 8.53954 12.4775C8.4865 12.442 8.44672 12.3923 8.4202 12.3284C8.39368 12.2716 8.38705 12.2077 8.40031 12.1366L8.64894 10.5813L7.59475 9.48403C7.4953 9.3846 7.46546 9.26741 7.50524 9.13247C7.55166 8.99754 7.63785 8.91941 7.76382 8.89811L9.22576 8.67439L9.8722 7.26819C9.93187 7.14035 10.028 7.07643 10.1606 7.07643C10.2932 7.07643 10.3893 7.14035 10.449 7.26819L11.0955 8.67439L12.5574 8.89811ZM11.175 10.4961C11.1684 10.4322 11.185 10.3789 11.2247 10.3363L12.1695 9.35619L10.8667 9.15378C10.807 9.14668 10.7673 9.11827 10.7474 9.06856L10.1606 7.80084L9.57384 9.06856C9.55395 9.11827 9.51417 9.14668 9.4545 9.15378L8.15168 9.35619L9.09647 10.3363C9.13625 10.3789 9.15283 10.4322 9.1462 10.4961L8.91746 11.881L10.091 11.2205C10.1374 11.1921 10.1838 11.1921 10.2302 11.2205L11.4038 11.881L11.175 10.4961Z" fill="#444546"/>
<path fill-rule="evenodd" clip-rule="evenodd" d="M12.601 8.62905C12.7084 8.64721 12.8105 8.69249 12.8951 8.77226C12.9771 8.84955 13.0291 8.94635 13.0599 9.04796C13.0952 9.15325 13.1073 9.26733 13.0811 9.38299C13.0546 9.49987 12.9938 9.59773 12.9154 9.67677L11.9576 10.6737L12.1839 12.0896C12.2169 12.272 12.1749 12.4486 12.053 12.5923C11.9412 12.724 11.7904 12.8035 11.6126 12.8035C11.5124 12.8035 11.4172 12.7765 11.3317 12.7254L10.1606 12.0743L8.98956 12.7254C8.90397 12.7765 8.80886 12.8035 8.70861 12.8035C8.59361 12.8035 8.48684 12.7683 8.39318 12.7056C8.29432 12.6395 8.22232 12.5477 8.1766 12.4401C8.125 12.3263 8.11633 12.2057 8.1373 12.0896L8.36363 10.6737L7.40585 9.67678C7.32858 9.5989 7.26823 9.5035 7.23938 9.39021C7.21024 9.27573 7.21792 9.16125 7.24959 9.05384L7.25308 9.04199C7.28811 8.94014 7.34386 8.84449 7.42748 8.76869C7.51221 8.6919 7.61311 8.64716 7.7202 8.62905L7.72426 8.62837L9.04483 8.42632L9.63118 7.15082C9.67774 7.05107 9.74627 6.96038 9.8434 6.89581C9.94124 6.83075 10.0509 6.80371 10.1606 6.80371C10.2704 6.80371 10.38 6.83075 10.4778 6.89581C10.5749 6.96038 10.6435 7.05107 10.69 7.15082L10.6907 7.15227L11.2764 8.42632L12.601 8.62905ZM7.59475 9.48403L8.64894 10.5813L8.40031 12.1366C8.38705 12.2077 8.39368 12.2716 8.4202 12.3284C8.44672 12.3923 8.4865 12.442 8.53954 12.4775C8.59258 12.5131 8.64894 12.5308 8.70861 12.5308C8.76165 12.5308 8.81138 12.5166 8.85779 12.4882L10.1606 11.7638L11.4634 12.4882C11.5098 12.5166 11.5596 12.5308 11.6126 12.5308C11.7054 12.5308 11.785 12.4917 11.8513 12.4136C11.9176 12.3355 11.9408 12.2432 11.9209 12.1366L11.6723 10.5813L12.7265 9.48403C12.8259 9.3846 12.8524 9.26741 12.806 9.13247C12.7662 8.99754 12.6834 8.91941 12.5574 8.89811L11.0955 8.67439L10.449 7.26819C10.3893 7.14035 10.2932 7.07643 10.1606 7.07643C10.028 7.07643 9.93187 7.14035 9.8722 7.26819L9.22576 8.67439L7.76382 8.89811C7.63785 8.91941 7.55166 8.99754 7.50524 9.13247C7.46546 9.26741 7.4953 9.3846 7.59475 9.48403ZM11.2247 10.3363L12.1695 9.35619L10.8667 9.15378C10.807 9.14668 10.7673 9.11827 10.7474 9.06856L10.1606 7.80084L9.57384 9.06856C9.55395 9.11827 9.51417 9.14668 9.4545 9.15378L8.15168 9.35619L9.09647 10.3363C9.13625 10.3789 9.15283 10.4322 9.1462 10.4961L8.91746 11.881L10.091 11.2205C10.1374 11.1921 10.1838 11.1921 10.2302 11.2205L11.4038 11.881L11.175 10.4961C11.1684 10.4322 11.185 10.3789 11.2247 10.3363ZM11.0485 11.3697L10.909 10.5249C10.895 10.3896 10.9322 10.2544 11.0315 10.1481L11.0345 10.1449L11.6124 9.54548L10.8302 9.42397C10.6951 9.40624 10.5667 9.32903 10.5036 9.18005L10.1606 8.43891L9.81757 9.18004C9.75448 9.32903 9.62607 9.40624 9.49098 9.42397L8.70886 9.54548L9.28973 10.148C9.38899 10.2544 9.42575 10.3895 9.41171 10.5248L9.40998 10.5415L9.27268 11.3697L9.95886 10.9835C10.0156 10.9498 10.0839 10.9265 10.1606 10.9265C10.2374 10.9265 10.3056 10.9498 10.3624 10.9835L11.0485 11.3697Z" fill="#444546"/>
</svg>
