<svg width="24" height="25" viewBox="0 0 24 25" fill="none" xmlns="http://www.w3.org/2000/svg">
<path d="M6.40054 7.03669C7.94518 5.49205 9.7944 4.71973 11.9482 4.71973C14.102 4.71973 15.9403 5.49205 17.4632 7.03669C19.0079 8.55958 19.7802 10.3979 19.7802 12.5517C19.7802 14.7055 19.0079 16.5547 17.4632 18.0994C15.9403 19.6223 14.102 20.3837 11.9482 20.3837C9.7944 20.3837 7.94518 19.6223 6.40054 18.0994C4.87765 16.5547 4.11621 14.7055 4.11621 12.5517C4.11621 10.3979 4.87765 8.55958 6.40054 7.03669ZM11.9482 18.8173C13.6669 18.8173 15.1354 18.2082 16.3537 16.9898C17.5938 15.7498 18.2138 14.2704 18.2138 12.5517C18.2138 10.833 17.5938 9.36453 16.3537 8.14622C15.1354 6.90616 13.6669 6.28612 11.9482 6.28612V18.8173Z" fill="#444546"/>
</svg>
