<svg width="17" height="17" viewBox="0 0 17 17" fill="none" xmlns="http://www.w3.org/2000/svg">
<path d="M15.556 10.0052H10.0927V15.4211C10.0927 16.2931 9.37964 17 8.5 17C7.62036 17 6.90727 16.2931 6.90727 15.4211V10.0052H1.44403C0.623523 9.92098 0 9.23555 0 8.41781C0 7.60006 0.623523 6.91463 1.44403 6.8304H6.89014V1.43151C6.97511 0.618117 7.66654 0 8.49144 0C9.31633 0 10.0078 0.618117 10.0927 1.43151V6.8304H15.556C16.3765 6.91463 17 7.60006 17 8.41781C17 9.23555 16.3765 9.92098 15.556 10.0052Z" fill="#10A161"/>
</svg>
