<svg width="368" height="91" viewBox="0 0 368 91" fill="none" xmlns="http://www.w3.org/2000/svg">
<path d="M81.0765 15.52V10.3751H84.6989V11.7751H82.739V21.75H81.0765V16.9025H77.8565V19.2475H76.3865L75.8965 18.1625C75.5815 17.4975 75.424 16.9784 75.424 16.605C75.424 16.3484 75.494 16.1267 75.634 15.94C75.774 15.7534 75.9548 15.6367 76.1765 15.59V12.7551C76.1765 12.0551 75.9082 11.7051 75.3715 11.7051C75.0099 11.7051 74.689 11.7867 74.409 11.9501V10.5851C74.7707 10.3867 75.2024 10.2876 75.704 10.2876C77.139 10.2876 77.8565 11.0284 77.8565 12.5101V15.52H81.0765ZM83.674 11.7751V10.3751H89.2564V11.7751H87.3139V21.75H85.6165V11.7751H83.674ZM89.1957 16.99V15.625H90.4207C91.739 15.625 92.3982 15.0942 92.3982 14.0326V11.7751H88.2157V10.3751H95.8457V11.7751H94.0782V14.1726C94.0782 14.9892 93.839 15.6425 93.3607 16.1325C92.8824 16.6109 92.229 16.8792 91.4007 16.9375C91.3774 16.9492 91.3074 16.955 91.1907 16.955L94.8832 21.75H92.8357L89.1957 16.99ZM106.06 10.3751V11.7751H104.118V21.75H102.42V15.1525H100.898C98.9612 15.1525 97.9928 16.0042 97.9928 17.7075C97.9928 18.5125 98.1853 19.1484 98.5703 19.615C98.9553 20.07 99.5328 20.2975 100.303 20.2975C100.489 20.2975 100.612 20.2917 100.67 20.28V21.715C100.46 21.7383 100.268 21.75 100.093 21.75C98.9145 21.75 97.9812 21.3708 97.2928 20.6125C96.6162 19.8542 96.2779 18.88 96.2779 17.69C96.2779 16.4884 96.657 15.5317 97.4153 14.82C98.1737 14.0967 99.2878 13.7351 100.758 13.7351H102.42V11.7751H94.8254V10.3751H106.06ZM108.629 10.3751H110.589V11.7751H108.646V21.75H106.966V11.7751H105.024V10.3751H106.931V9.01009C106.931 8.48509 106.785 8.0826 106.494 7.8026C106.214 7.5226 105.835 7.3826 105.356 7.3826C104.89 7.3826 104.522 7.51677 104.254 7.7851C103.985 8.05343 103.851 8.46176 103.851 9.01009V9.37759H102.154V8.97509C102.154 7.9601 102.457 7.19594 103.064 6.68261C103.67 6.16928 104.435 5.91261 105.356 5.91261C106.29 5.91261 107.065 6.16928 107.684 6.68261C108.314 7.19594 108.629 7.95427 108.629 8.95759V10.3751ZM115.008 19.6675C113.9 19.6675 112.949 19.2825 112.156 18.5125C111.374 17.7425 110.896 16.6692 110.721 15.2925C111.642 15.1525 112.336 14.9017 112.803 14.5401C113.281 14.1784 113.521 13.7584 113.521 13.2801C113.521 12.6734 113.346 12.1717 112.996 11.7751H109.566V10.3751H121.396V11.7751H119.453V21.75H117.773V18.4775C117.225 19.2709 116.303 19.6675 115.008 19.6675ZM115.218 18.1975C115.988 18.1975 116.606 17.9817 117.073 17.55C117.54 17.1184 117.773 16.5234 117.773 15.765V11.7751H114.798C115.066 12.2067 115.201 12.7317 115.201 13.3501C115.201 14.7267 114.366 15.695 112.698 16.255C112.838 16.8267 113.13 17.2934 113.573 17.655C114.028 18.0167 114.576 18.1975 115.218 18.1975ZM131.388 18.5475L127.888 15.2925C127.608 15.6892 127.468 16.1675 127.468 16.7275C127.468 17.4042 127.678 17.9525 128.098 18.3725C128.53 18.7925 129.078 19.0025 129.743 19.0025C130.373 19.0025 130.922 18.8509 131.388 18.5475ZM136.218 10.3751V11.7751H134.258V21.75H132.578V19.0725C131.832 19.9358 130.828 20.3675 129.568 20.3675C128.53 20.3675 127.638 20.0233 126.891 19.335C126.156 18.6467 125.788 17.7659 125.788 16.6925C125.788 15.6192 126.15 14.7384 126.873 14.0501C127.608 13.3501 128.548 13.0001 129.691 13.0001C130.158 13.0001 130.636 13.0584 131.126 13.1751V14.6451C130.671 14.5051 130.233 14.4351 129.813 14.4351C129.37 14.4351 128.973 14.5167 128.623 14.6801L132.106 17.9C132.421 17.4684 132.578 16.99 132.578 16.465V11.7751H124.511V10.3751H136.218ZM138.793 10.3751H140.753V11.7751H138.81V21.75H137.13V11.7751H135.188V10.3751H137.095V9.01009C137.095 8.48509 136.95 8.0826 136.658 7.8026C136.378 7.5226 135.999 7.3826 135.52 7.3826C135.054 7.3826 134.686 7.51677 134.418 7.7851C134.15 8.05343 134.015 8.46176 134.015 9.01009V9.37759H132.318V8.97509C132.318 7.9601 132.621 7.19594 133.228 6.68261C133.835 6.16928 134.599 5.91261 135.52 5.91261C136.454 5.91261 137.23 6.16928 137.848 6.68261C138.478 7.19594 138.793 7.95427 138.793 8.95759V10.3751ZM139.73 11.7751V10.3751H150.65V11.7751H148.707V21.75H147.045V16.955H143.632V19.265H142.18L141.69 18.145C141.363 17.41 141.2 16.885 141.2 16.57C141.2 16.0684 141.456 15.7534 141.97 15.625V11.7751H139.73ZM147.045 11.7751H143.632V15.555H147.045V11.7751ZM149.638 11.7751V10.3751H155.22V11.7751H153.278V21.75H151.58V11.7751H149.638ZM163.771 5.87761C165.381 5.87761 166.868 6.02345 168.233 6.31511C169.598 6.59511 171.028 7.00927 172.521 7.5576V9.15009C169.523 7.94843 166.623 7.3476 163.823 7.3476C163.217 7.3476 162.75 7.49927 162.423 7.8026C162.097 8.10593 161.933 8.52593 161.933 9.06259V10.3751H163.876V11.7751H161.933V21.75H160.253V11.7751H158.311V10.3751H160.253V9.04509C160.253 8.1001 160.568 7.33594 161.198 6.75261C161.828 6.16928 162.686 5.87761 163.771 5.87761ZM173.895 10.3751V11.7751H171.935V21.75H170.255V19.0375C169.625 19.8075 168.727 20.1925 167.56 20.1925C166.58 20.1925 165.746 19.8892 165.058 19.2825C164.369 18.6642 164.025 17.8242 164.025 16.7625C164.025 15.7709 164.358 14.9484 165.023 14.2951C165.688 13.6417 166.551 13.3151 167.613 13.3151C168.033 13.3151 168.418 13.3559 168.768 13.4376V14.925C168.453 14.82 168.108 14.7675 167.735 14.7675C167.175 14.7675 166.703 14.9484 166.318 15.31C165.933 15.6717 165.74 16.15 165.74 16.745C165.74 17.375 165.933 17.8767 166.318 18.25C166.703 18.6234 167.199 18.81 167.805 18.81C168.517 18.81 169.1 18.5709 169.555 18.0925C170.022 17.6142 170.255 17.0425 170.255 16.3775V11.7751H162.853V10.3751H173.895ZM178.236 5.87761C179.461 5.87761 180.604 6.02345 181.666 6.31511C182.739 6.59511 183.941 7.00927 185.271 7.5576V9.15009C182.657 7.94843 180.33 7.3476 178.288 7.3476C177.716 7.3476 177.273 7.49927 176.958 7.8026C176.643 8.09426 176.486 8.50259 176.486 9.02759V10.3751H178.428V11.7751H176.486V21.75H174.806V11.7751H172.863V10.3751H174.806V9.01009C174.806 8.07676 175.115 7.32427 175.733 6.75261C176.351 6.16928 177.186 5.87761 178.236 5.87761ZM177.405 10.3751H187.03V11.7751H185.087V21.75H183.39V16.0625H180.555C180.345 16.0625 180.193 16.1209 180.1 16.2375C180.018 16.3425 179.977 16.5234 179.977 16.78C179.977 17.1417 180.047 17.5617 180.187 18.04H178.805C178.455 17.445 178.28 16.7917 178.28 16.08C178.28 15.6484 178.414 15.31 178.682 15.065C178.951 14.8084 179.359 14.6801 179.907 14.6801H183.39V11.7751H177.405V10.3751ZM191.457 19.6675C190.348 19.6675 189.397 19.2825 188.604 18.5125C187.822 17.7425 187.344 16.6692 187.169 15.2925C188.091 15.1525 188.785 14.9017 189.252 14.5401C189.73 14.1784 189.969 13.7584 189.969 13.2801C189.969 12.6734 189.794 12.1717 189.444 11.7751H186.014V10.3751H197.844V11.7751H195.901V21.75H194.222V18.4775C193.673 19.2709 192.752 19.6675 191.457 19.6675ZM191.667 18.1975C192.437 18.1975 193.055 17.9817 193.522 17.55C193.988 17.1184 194.222 16.5234 194.222 15.765V11.7751H191.247C191.515 12.2067 191.649 12.7317 191.649 13.3501C191.649 14.7267 190.815 15.695 189.147 16.255C189.287 16.8267 189.578 17.2934 190.022 17.655C190.477 18.0167 191.025 18.1975 191.667 18.1975ZM196.828 11.7751V10.3751H202.41V11.7751H200.468V21.75H198.77V11.7751H196.828ZM201.37 11.7751V10.3751H212.289V11.7751H210.347V21.75H208.684V16.955H205.272V19.265H203.819L203.33 18.145C203.003 17.41 202.84 16.885 202.84 16.57C202.84 16.0684 203.096 15.7534 203.609 15.625V11.7751H201.37ZM208.684 11.7751H205.272V15.555H208.684V11.7751ZM225.82 11.7751H219.397V14.1026C219.922 13.5776 220.582 13.3151 221.375 13.3151C222.367 13.3151 223.16 13.6126 223.755 14.2076C224.362 14.8025 224.665 15.5842 224.665 16.5525C224.665 17.5909 224.321 18.4192 223.632 19.0375C222.956 19.6558 222.104 19.965 221.077 19.965C220.949 19.965 220.815 19.9533 220.675 19.93V18.53C220.745 18.5417 220.856 18.5475 221.007 18.5475C221.591 18.5475 222.063 18.3725 222.425 18.0225C222.787 17.6609 222.967 17.1767 222.967 16.57C222.967 16.0217 222.798 15.5725 222.46 15.2225C222.133 14.8609 221.69 14.6801 221.13 14.6801C220.652 14.6801 220.243 14.855 219.905 15.205C219.567 15.5434 219.397 15.9692 219.397 16.4825V21.75H217.7V19.3525C217.152 19.8775 216.487 20.14 215.705 20.14C214.725 20.14 213.932 19.8425 213.325 19.2475C212.718 18.6409 212.415 17.8592 212.415 16.9025C212.415 15.8642 212.753 15.0359 213.43 14.4176C214.118 13.7992 214.976 13.4901 216.002 13.4901C216.189 13.4901 216.323 13.5017 216.405 13.5251V14.925C216.288 14.9017 216.177 14.89 216.072 14.89C215.501 14.89 215.028 15.0709 214.655 15.4325C214.293 15.7942 214.112 16.2784 214.112 16.885C214.112 17.4334 214.282 17.8884 214.62 18.25C214.958 18.6 215.402 18.775 215.95 18.775C216.428 18.775 216.837 18.6059 217.175 18.2675C217.525 17.9175 217.7 17.4859 217.7 16.9725V11.7751H211.277V10.3751H225.82V11.7751ZM244.358 10.3751H246.248V11.7751H244.305V21.75H242.608V11.7751H239.563V21.75H237.883V17.34H235.608C235.62 17.41 235.625 17.515 235.625 17.655C235.625 18.5417 235.316 19.2592 234.698 19.8075C234.08 20.3558 233.205 20.63 232.073 20.63C231.28 20.63 230.545 20.49 229.868 20.21V18.635C230.591 19.0084 231.309 19.195 232.02 19.195C232.557 19.195 233.018 19.0609 233.403 18.7925C233.788 18.5125 233.98 18.0692 233.98 17.4625C233.98 16.4709 233.304 15.975 231.95 15.975H231.303V14.5051H231.863C232.435 14.5051 232.866 14.3826 233.158 14.1376C233.461 13.8926 233.613 13.5542 233.613 13.1226C233.613 12.2476 233.105 11.8101 232.09 11.8101C231.449 11.8101 230.871 11.9501 230.358 12.2301V10.6726C230.918 10.4509 231.519 10.3401 232.16 10.3401C233.164 10.3401 233.94 10.5734 234.488 11.0401C235.036 11.5067 235.31 12.1367 235.31 12.9301C235.31 13.5251 235.159 14.0209 234.855 14.4176C234.552 14.8142 234.144 15.0825 233.63 15.2225C234.202 15.2925 234.669 15.5259 235.03 15.9225H237.883V11.7751H236.36V10.3751H242.118C240.998 9.58175 240.018 9.18509 239.178 9.18509C238.793 9.18509 238.46 9.23176 238.18 9.32509V7.9426C238.507 7.84927 238.828 7.8026 239.143 7.8026C239.68 7.8026 240.17 7.91343 240.613 8.1351C241.056 8.35676 241.634 8.78259 242.345 9.41259L243.01 10.0076L241.4 7.9776C240.84 7.28927 240.129 6.94511 239.265 6.94511C238.822 6.94511 238.46 6.99177 238.18 7.0851V5.70261C238.46 5.62095 238.857 5.58012 239.37 5.58012C240.677 5.58012 241.71 6.18094 242.468 7.3826L244.358 10.3751ZM246.22 16.99V15.625H247.445C248.763 15.625 249.422 15.0942 249.422 14.0326V11.7751H245.24V10.3751H252.869V11.7751H251.102V14.1726C251.102 14.9892 250.863 15.6425 250.384 16.1325C249.906 16.6109 249.253 16.8792 248.424 16.9375C248.401 16.9492 248.331 16.955 248.214 16.955L251.907 21.75H249.859L246.22 16.99ZM261.441 5.87761C263.051 5.87761 264.538 6.02345 265.903 6.31511C267.268 6.59511 268.697 7.00927 270.191 7.5576V9.15009C267.192 7.94843 264.293 7.3476 261.493 7.3476C260.887 7.3476 260.42 7.49927 260.093 7.8026C259.767 8.10593 259.603 8.52593 259.603 9.06259V10.3751H261.546V11.7751H259.603V21.75H257.923V11.7751H255.981V10.3751H257.923V9.04509C257.923 8.1001 258.238 7.33594 258.868 6.75261C259.498 6.16928 260.356 5.87761 261.441 5.87761ZM271.565 10.3751V11.7751H269.605V21.75H267.925V19.0375C267.295 19.8075 266.397 20.1925 265.23 20.1925C264.25 20.1925 263.416 19.8892 262.727 19.2825C262.039 18.6642 261.695 17.8242 261.695 16.7625C261.695 15.7709 262.027 14.9484 262.692 14.2951C263.357 13.6417 264.221 13.3151 265.282 13.3151C265.702 13.3151 266.087 13.3559 266.437 13.4376V14.925C266.122 14.82 265.778 14.7675 265.405 14.7675C264.845 14.7675 264.372 14.9484 263.987 15.31C263.602 15.6717 263.41 16.15 263.41 16.745C263.41 17.375 263.602 17.8767 263.987 18.25C264.372 18.6234 264.868 18.81 265.475 18.81C266.187 18.81 266.77 18.5709 267.225 18.0925C267.692 17.6142 267.925 17.0425 267.925 16.3775V11.7751H260.523V10.3751H271.565ZM285.075 11.7751H278.653V14.1026C279.178 13.5776 279.837 13.3151 280.63 13.3151C281.622 13.3151 282.415 13.6126 283.01 14.2076C283.617 14.8025 283.92 15.5842 283.92 16.5525C283.92 17.5909 283.576 18.4192 282.888 19.0375C282.211 19.6558 281.36 19.965 280.333 19.965C280.205 19.965 280.07 19.9533 279.93 19.93V18.53C280 18.5417 280.111 18.5475 280.263 18.5475C280.846 18.5475 281.319 18.3725 281.68 18.0225C282.042 17.6609 282.223 17.1767 282.223 16.57C282.223 16.0217 282.054 15.5725 281.715 15.2225C281.389 14.8609 280.945 14.6801 280.385 14.6801C279.907 14.6801 279.499 14.855 279.16 15.205C278.822 15.5434 278.653 15.9692 278.653 16.4825V21.75H276.955V19.3525C276.407 19.8775 275.742 20.14 274.96 20.14C273.98 20.14 273.187 19.8425 272.58 19.2475C271.974 18.6409 271.67 17.8592 271.67 16.9025C271.67 15.8642 272.009 15.0359 272.685 14.4176C273.374 13.7992 274.231 13.4901 275.258 13.4901C275.445 13.4901 275.579 13.5017 275.66 13.5251V14.925C275.544 14.9017 275.433 14.89 275.328 14.89C274.756 14.89 274.284 15.0709 273.91 15.4325C273.549 15.7942 273.368 16.2784 273.368 16.885C273.368 17.4334 273.537 17.8884 273.875 18.25C274.214 18.6 274.657 18.775 275.205 18.775C275.684 18.775 276.092 18.6059 276.43 18.2675C276.78 17.9175 276.955 17.4859 276.955 16.9725V11.7751H270.533V10.3751H285.075V11.7751ZM284.047 11.7751V10.3751H289.629V11.7751H287.687V21.75H285.989V11.7751H284.047ZM293.576 15.8175H297.164V11.7751H293.996V14.1201C293.996 14.82 293.856 15.3859 293.576 15.8175ZM300.786 10.3751V11.7751H298.844V21.75H297.164V17.2175H294.311C293.191 17.2175 292.275 17.165 291.564 17.06L294.801 21.75H292.754L289.464 16.885V15.6075H290.636C291.266 15.6075 291.704 15.4792 291.949 15.2225C292.194 14.9659 292.316 14.5751 292.316 14.0501V11.7751H288.589V10.3751H300.786ZM310.997 14.82V11.7751H307.27V14.96C307.27 15.695 307.41 16.2317 307.69 16.57C307.97 16.8967 308.396 17.06 308.967 17.06C309.539 17.06 310.017 16.8617 310.402 16.465C310.799 16.0684 310.997 15.52 310.997 14.82ZM314.655 10.3751V11.7751H312.695V21.75H310.997V17.445L307.06 21.75H304.89L308.005 18.32C306.383 18.075 305.572 16.9375 305.572 14.9075V11.7751H303.91V10.3751H314.655ZM313.63 11.7751V10.3751H319.212V11.7751H317.27V21.75H315.572V11.7751H313.63ZM323.684 5.87761C325.492 5.87761 327.137 6.02345 328.619 6.31511C330.112 6.60677 331.664 7.02094 333.274 7.5576V9.15009C330.066 7.94843 326.887 7.3476 323.737 7.3476C323.107 7.3476 322.622 7.49927 322.284 7.8026C321.957 8.10593 321.794 8.52593 321.794 9.06259V10.3751H323.737V11.7751H321.794V21.75H320.114V11.7751H318.172V10.3751H320.114V9.04509C320.114 8.08843 320.429 7.32427 321.059 6.75261C321.701 6.16928 322.576 5.87761 323.684 5.87761ZM334.701 10.3751V11.7751H332.758V21.75H331.078V19.1075C330.775 19.5508 330.332 19.9125 329.748 20.1925C329.177 20.4608 328.529 20.595 327.806 20.595C326.698 20.595 325.805 20.3383 325.128 19.825C324.452 19.3 324.113 18.6175 324.113 17.7775C324.113 17.1125 324.329 16.5817 324.761 16.185C325.193 15.7884 325.77 15.555 326.493 15.485C325.793 15.4267 325.245 15.2284 324.848 14.89C324.452 14.5517 324.253 14.0734 324.253 13.4551C324.253 12.6734 324.586 12.1134 325.251 11.7751H322.713V10.3751H328.208V11.7751H328.191C327.479 11.7751 326.925 11.9209 326.528 12.2126C326.143 12.5042 325.951 12.8892 325.951 13.3676C325.951 13.8459 326.143 14.2017 326.528 14.4351C326.925 14.6684 327.444 14.785 328.086 14.785H328.926V16.2025H327.946C327.281 16.2025 326.762 16.3367 326.388 16.605C326.015 16.8617 325.828 17.2234 325.828 17.69C325.828 18.145 326.015 18.5067 326.388 18.775C326.773 19.0434 327.287 19.1775 327.928 19.1775C328.873 19.1775 329.632 18.9034 330.203 18.355C330.787 17.8067 331.078 17.1417 331.078 16.36V10.3751H334.701ZM348.223 11.7751H341.801V14.1026C342.326 13.5776 342.985 13.3151 343.778 13.3151C344.77 13.3151 345.563 13.6126 346.158 14.2076C346.765 14.8025 347.068 15.5842 347.068 16.5525C347.068 17.5909 346.724 18.4192 346.036 19.0375C345.359 19.6558 344.507 19.965 343.481 19.965C343.352 19.965 343.218 19.9533 343.078 19.93V18.53C343.148 18.5417 343.259 18.5475 343.411 18.5475C343.994 18.5475 344.467 18.3725 344.828 18.0225C345.19 17.6609 345.371 17.1767 345.371 16.57C345.371 16.0217 345.202 15.5725 344.863 15.2225C344.537 14.8609 344.093 14.6801 343.533 14.6801C343.055 14.6801 342.647 14.855 342.308 15.205C341.97 15.5434 341.801 15.9692 341.801 16.4825V21.75H340.103V19.3525C339.555 19.8775 338.89 20.14 338.108 20.14C337.128 20.14 336.335 19.8425 335.728 19.2475C335.122 18.6409 334.818 17.8592 334.818 16.9025C334.818 15.8642 335.157 15.0359 335.833 14.4176C336.522 13.7992 337.379 13.4901 338.406 13.4901C338.592 13.4901 338.727 13.5017 338.808 13.5251V14.925C338.692 14.9017 338.581 14.89 338.476 14.89C337.904 14.89 337.432 15.0709 337.058 15.4325C336.697 15.7942 336.516 16.2784 336.516 16.885C336.516 17.4334 336.685 17.8884 337.023 18.25C337.362 18.6 337.805 18.775 338.353 18.775C338.832 18.775 339.24 18.6059 339.578 18.2675C339.928 17.9175 340.103 17.4859 340.103 16.9725V11.7751H333.681V10.3751H348.223V11.7751ZM348.175 16.99V15.625H349.4C350.718 15.625 351.377 15.0942 351.377 14.0326V11.7751H347.195V10.3751H354.825V11.7751H353.057V14.1726C353.057 14.9892 352.818 15.6425 352.34 16.1325C351.861 16.6109 351.208 16.8792 350.38 16.9375C350.356 16.9492 350.286 16.955 350.17 16.955L353.862 21.75H351.815L348.175 16.99ZM359.789 15.695V11.7751H356.919V15.695C356.919 16.815 357.392 17.375 358.337 17.375C359.305 17.375 359.789 16.815 359.789 15.695ZM367.717 10.3751V11.7751H365.757V21.75H364.077V11.7751H361.469V15.6075C361.469 16.6459 361.195 17.4392 360.647 17.9875C360.098 18.5359 359.317 18.81 358.302 18.81C356.26 18.81 355.239 17.7484 355.239 15.625V11.7751H353.804V10.3751H367.717Z" fill="#444546"/>
<path d="M77.9201 56.126H75.7668V43.6847H77.9201V56.126ZM90.2719 56.126H88.1101L82.5644 47.2991V56.126H80.4026V43.6847H82.5644L88.1271 52.5457V43.6847H90.2719V56.126ZM99.1545 52.9217C99.1545 52.3748 98.9608 51.9532 98.5734 51.657C98.1917 51.3608 97.4996 51.0617 96.497 50.7598C95.4944 50.4579 94.6969 50.1218 94.1044 49.7515C92.9708 49.0394 92.404 48.1109 92.404 46.9659C92.404 45.9633 92.8113 45.1373 93.6259 44.4879C94.4462 43.8385 95.5087 43.5138 96.8132 43.5138C97.679 43.5138 98.4509 43.6733 99.1288 43.9923C99.8067 44.3113 100.339 44.767 100.727 45.3595C101.114 45.9462 101.308 46.5985 101.308 47.3162H99.1545C99.1545 46.6668 98.9494 46.1598 98.5392 45.7952C98.1348 45.425 97.5537 45.2398 96.7961 45.2398C96.0897 45.2398 95.54 45.3908 95.1469 45.6927C94.7596 45.9946 94.5659 46.4162 94.5659 46.9573C94.5659 47.4131 94.7766 47.7947 95.1982 48.1024C95.6197 48.4043 96.3147 48.7005 97.2831 48.991C98.2516 49.2758 99.0291 49.6034 99.6159 49.9737C100.203 50.3383 100.633 50.7598 100.906 51.2383C101.18 51.7111 101.316 52.2665 101.316 52.9046C101.316 53.9413 100.918 54.7673 100.12 55.3826C99.3282 55.9921 98.2516 56.2969 96.8901 56.2969C95.99 56.2969 95.1612 56.1317 94.4035 55.8013C93.6516 55.4652 93.0648 55.0038 92.6433 54.417C92.2274 53.8303 92.0195 53.1467 92.0195 52.3662H94.1814C94.1814 53.0726 94.4149 53.6195 94.882 54.0069C95.3491 54.3942 96.0185 54.5879 96.8901 54.5879C97.642 54.5879 98.206 54.4369 98.582 54.135C98.9636 53.8274 99.1545 53.423 99.1545 52.9217ZM112.139 43.6847V51.9988C112.139 53.3204 111.714 54.3686 110.865 55.1433C110.022 55.9124 108.897 56.2969 107.49 56.2969C106.066 56.2969 104.935 55.9181 104.098 55.1604C103.26 54.3971 102.842 53.3404 102.842 51.9903V43.6847H104.995V52.0074C104.995 52.8391 105.206 53.4742 105.627 53.9129C106.049 54.3515 106.67 54.5708 107.49 54.5708C109.154 54.5708 109.985 53.6935 109.985 51.939V43.6847H112.139ZM118.851 51.3323H116.441V56.126H114.279V43.6847H118.654C120.09 43.6847 121.198 44.0065 121.978 44.6502C122.759 45.2939 123.149 46.2253 123.149 47.4444C123.149 48.2761 122.947 48.9739 122.542 49.5379C122.143 50.0962 121.585 50.5262 120.867 50.8282L123.661 56.0149V56.126H121.346L118.851 51.3323ZM116.441 49.5977H118.663C119.392 49.5977 119.962 49.4154 120.372 49.0508C120.782 48.6806 120.987 48.1764 120.987 47.5384C120.987 46.8719 120.796 46.3564 120.414 45.9918C120.038 45.6272 119.474 45.4392 118.723 45.4278H116.441V49.5977ZM131.989 53.2293H127.169L126.161 56.126H123.914L128.613 43.6847H130.553L135.261 56.126H133.005L131.989 53.2293ZM127.776 51.4861H131.382L129.579 46.325L127.776 51.4861ZM146.374 56.126H144.212L138.667 47.2991V56.126H136.505V43.6847H138.667L144.229 52.5457V43.6847H146.374V56.126ZM158.247 52.0757C158.122 53.403 157.632 54.4398 156.778 55.186C155.923 55.9266 154.787 56.2969 153.368 56.2969C152.377 56.2969 151.503 56.0633 150.745 55.5962C149.993 55.1234 149.412 54.454 149.002 53.5882C148.592 52.7223 148.378 51.7168 148.361 50.5718V49.4097C148.361 48.2362 148.569 47.2023 148.985 46.3079C149.401 45.4136 149.996 44.7243 150.771 44.2401C151.551 43.7559 152.451 43.5138 153.471 43.5138C154.844 43.5138 155.949 43.8869 156.786 44.6331C157.624 45.3794 158.111 46.4333 158.247 47.7947H156.094C155.991 46.9004 155.729 46.2567 155.308 45.8636C154.892 45.4648 154.28 45.2655 153.471 45.2655C152.531 45.2655 151.807 45.6101 151.3 46.2994C150.799 46.983 150.543 47.9884 150.531 49.3157V50.418C150.531 51.7624 150.771 52.7878 151.249 53.4942C151.733 54.2005 152.44 54.5537 153.368 54.5537C154.217 54.5537 154.855 54.3629 155.282 53.9812C155.709 53.5995 155.98 52.9644 156.094 52.0757H158.247ZM167.284 50.5718H162.174V54.3999H168.147V56.126H160.012V43.6847H168.087V45.4278H162.174V48.8628H167.284V50.5718ZM178.486 51.3323H176.077V56.126H173.915V43.6847H178.29C179.725 43.6847 180.833 44.0065 181.614 44.6502C182.394 45.2939 182.784 46.2253 182.784 47.4444C182.784 48.2761 182.582 48.9739 182.178 49.5379C181.779 50.0962 181.221 50.5262 180.503 50.8282L183.297 56.0149V56.126H180.981L178.486 51.3323ZM176.077 49.5977H178.298C179.027 49.5977 179.597 49.4154 180.007 49.0508C180.417 48.6806 180.623 48.1764 180.623 47.5384C180.623 46.8719 180.432 46.3564 180.05 45.9918C179.674 45.6272 179.11 45.4392 178.358 45.4278H176.077V49.5977ZM191.932 50.5718H186.822V54.3999H192.795V56.126H184.66V43.6847H192.735V45.4278H186.822V48.8628H191.932V50.5718ZM203.916 54.511C203.466 55.0977 202.842 55.5421 202.045 55.844C201.247 56.1459 200.342 56.2969 199.328 56.2969C198.285 56.2969 197.362 56.0605 196.559 55.5877C195.756 55.1148 195.135 54.4398 194.696 53.5625C194.263 52.6795 194.038 51.6513 194.021 50.4778V49.5037C194.021 47.6238 194.471 46.157 195.371 45.1031C196.271 44.0435 197.527 43.5138 199.14 43.5138C200.524 43.5138 201.623 43.8556 202.438 44.5391C203.253 45.2227 203.742 46.2082 203.908 47.4957H201.788C201.549 45.9975 200.681 45.2484 199.182 45.2484C198.214 45.2484 197.476 45.5987 196.969 46.2994C196.468 46.9944 196.209 48.0169 196.192 49.367V50.324C196.192 51.6684 196.474 52.7137 197.038 53.46C197.607 54.2005 198.396 54.5708 199.404 54.5708C200.51 54.5708 201.296 54.3202 201.763 53.8189V51.3836H199.199V49.743H203.916V54.511ZM215.217 43.6847V51.9988C215.217 53.3204 214.793 54.3686 213.944 55.1433C213.101 55.9124 211.976 56.2969 210.569 56.2969C209.144 56.2969 208.014 55.9181 207.176 55.1604C206.339 54.3971 205.92 53.3404 205.92 51.9903V43.6847H208.073V52.0074C208.073 52.8391 208.284 53.4742 208.706 53.9129C209.127 54.3515 209.748 54.5708 210.569 54.5708C212.232 54.5708 213.064 53.6935 213.064 51.939V43.6847H215.217ZM219.519 54.3999H225.168V56.126H217.358V43.6847H219.519V54.3999ZM233.785 53.2293H228.966L227.958 56.126H225.71L230.41 43.6847H232.35L237.058 56.126H234.802L233.785 53.2293ZM229.573 51.4861H233.179L231.376 46.325L229.573 51.4861ZM246.265 45.4278H242.386V56.126H240.241V45.4278H236.396V43.6847H246.265V45.4278ZM257.421 50.23C257.421 51.4491 257.21 52.52 256.788 53.4429C256.367 54.36 255.763 55.0664 254.977 55.562C254.196 56.0519 253.296 56.2969 252.277 56.2969C251.268 56.2969 250.368 56.0519 249.576 55.562C248.79 55.0664 248.181 54.3629 247.748 53.4514C247.321 52.54 247.104 51.489 247.098 50.2984V49.5977C247.098 48.3843 247.312 47.3134 247.739 46.3848C248.172 45.4563 248.779 44.7471 249.559 44.2572C250.346 43.7616 251.246 43.5138 252.26 43.5138C253.274 43.5138 254.171 43.7587 254.951 44.2486C255.737 44.7328 256.344 45.4335 256.771 46.3507C257.198 47.2621 257.415 48.3245 257.421 49.5379V50.23ZM255.259 49.5806C255.259 48.202 254.997 47.1453 254.473 46.4105C253.954 45.6756 253.217 45.3082 252.26 45.3082C251.325 45.3082 250.593 45.6756 250.064 46.4105C249.539 47.1396 249.272 48.1736 249.26 49.5123V50.23C249.26 51.5972 249.525 52.6539 250.055 53.4002C250.59 54.1464 251.331 54.5195 252.277 54.5195C253.234 54.5195 253.969 54.155 254.481 53.4258C255 52.6966 255.259 51.6314 255.259 50.23V49.5806ZM263.97 51.3323H261.561V56.126H259.399V43.6847H263.774C265.209 43.6847 266.317 44.0065 267.098 44.6502C267.878 45.2939 268.269 46.2253 268.269 47.4444C268.269 48.2761 268.066 48.9739 267.662 49.5379C267.263 50.0962 266.705 50.5262 265.987 50.8282L268.781 56.0149V56.126H266.466L263.97 51.3323ZM261.561 49.5977H263.782C264.512 49.5977 265.081 49.4154 265.491 49.0508C265.902 48.6806 266.107 48.1764 266.107 47.5384C266.107 46.8719 265.916 46.3564 265.534 45.9918C265.158 45.6272 264.594 45.4392 263.842 45.4278H261.561V49.5977ZM273.793 49.5806L276.655 43.6847H279.048L274.878 51.5459V56.126H272.708V51.5459L268.529 43.6847H270.93L273.793 49.5806ZM291.37 53.2293H286.551L285.542 56.126H283.295L287.995 43.6847H289.935L294.643 56.126H292.387L291.37 53.2293ZM287.157 51.4861H290.763L288.96 46.325L287.157 51.4861ZM305.756 56.126H303.594L298.048 47.2991V56.126H295.886V43.6847H298.048L303.611 52.5457V43.6847H305.756V56.126ZM308.135 56.126V43.6847H311.81C312.909 43.6847 313.883 43.9296 314.732 44.4195C315.587 44.9094 316.247 45.6044 316.714 46.5045C317.182 47.4045 317.415 48.4356 317.415 49.5977V50.2215C317.415 51.4007 317.179 52.4374 316.706 53.3318C316.239 54.2262 315.569 54.9155 314.698 55.3997C313.832 55.8839 312.838 56.126 311.716 56.126H308.135ZM310.297 45.4278V54.3999H311.707C312.841 54.3999 313.71 54.0467 314.313 53.3404C314.923 52.6283 315.233 51.6086 315.245 50.2813V49.5892C315.245 48.2391 314.951 47.208 314.365 46.4959C313.778 45.7838 312.926 45.4278 311.81 45.4278H310.297ZM75.6387 83.126V70.6847H79.313C80.4124 70.6847 81.3865 70.9296 82.2353 71.4195C83.0898 71.9094 83.7506 72.6044 84.2177 73.5045C84.6848 74.4045 84.9184 75.4356 84.9184 76.5977V77.2215C84.9184 78.4007 84.682 79.4374 84.2092 80.3318C83.742 81.2262 83.0727 81.9155 82.2011 82.3997C81.3352 82.8839 80.3412 83.126 79.219 83.126H75.6387ZM77.8005 72.4278V81.3999H79.2104C80.344 81.3999 81.2128 81.0467 81.8166 80.3404C82.4261 79.6283 82.7366 78.6086 82.748 77.2813V76.5892C82.748 75.2391 82.4546 74.208 81.8679 73.4959C81.2811 72.7838 80.4295 72.4278 79.313 72.4278H77.8005ZM94.1684 77.5718H89.0585V81.3999H95.0314V83.126H86.8967V70.6847H94.9716V72.4278H89.0585V75.8628H94.1684V77.5718ZM101 80.4173L104.162 70.6847H106.537L102.06 83.126H99.9662L95.5058 70.6847H97.8727L101 80.4173ZM115.044 77.5718H109.934V81.3999H115.907V83.126H107.772V70.6847H115.847V72.4278H109.934V75.8628H115.044V77.5718ZM119.654 81.3999H125.302V83.126H117.492V70.6847H119.654V81.3999ZM136.167 77.23C136.167 78.4491 135.956 79.52 135.535 80.4429C135.113 81.36 134.509 82.0664 133.723 82.562C132.943 83.0519 132.043 83.2969 131.023 83.2969C130.015 83.2969 129.115 83.0519 128.323 82.562C127.537 82.0664 126.927 81.3629 126.494 80.4514C126.067 79.54 125.851 78.489 125.845 77.2984V76.5977C125.845 75.3843 126.058 74.3134 126.486 73.3848C126.919 72.4563 127.525 71.7471 128.306 71.2572C129.092 70.7616 129.992 70.5138 131.006 70.5138C132.02 70.5138 132.917 70.7587 133.698 71.2486C134.484 71.7328 135.09 72.4335 135.518 73.3507C135.945 74.2621 136.161 75.3245 136.167 76.5379V77.23ZM134.005 76.5806C134.005 75.202 133.743 74.1453 133.219 73.4105C132.701 72.6756 131.963 72.3082 131.006 72.3082C130.072 72.3082 129.34 72.6756 128.81 73.4105C128.286 74.1396 128.018 75.1736 128.007 76.5123V77.23C128.007 78.5972 128.272 79.6539 128.801 80.4002C129.337 81.1464 130.077 81.5195 131.023 81.5195C131.98 81.5195 132.715 81.155 133.228 80.4258C133.746 79.6966 134.005 78.6314 134.005 77.23V76.5806ZM140.307 78.5032V83.126H138.145V70.6847H142.905C144.295 70.6847 145.397 71.0464 146.212 71.7699C147.032 72.4933 147.442 73.4503 147.442 74.6409C147.442 75.86 147.041 76.8085 146.237 77.4864C145.44 78.1643 144.32 78.5032 142.879 78.5032H140.307ZM140.307 76.7686H142.905C143.674 76.7686 144.261 76.5892 144.665 76.2303C145.07 75.8657 145.272 75.3416 145.272 74.658C145.272 73.9858 145.067 73.4503 144.657 73.0516C144.246 72.6471 143.682 72.4392 142.965 72.4278H140.307V76.7686ZM151.967 70.6847L155.556 80.2207L159.136 70.6847H161.93V83.126H159.777V79.0244L159.99 73.5386L156.316 83.126H154.77L151.104 73.5472L151.317 79.0244V83.126H149.164V70.6847H151.967ZM171.59 77.5718H166.48V81.3999H172.453V83.126H164.319V70.6847H172.393V72.4278H166.48V75.8628H171.59V77.5718ZM183.908 83.126H181.746L176.2 74.2991V83.126H174.039V70.6847H176.2L181.763 79.5457V70.6847H183.908V83.126ZM195.021 72.4278H191.141V83.126H188.996V72.4278H185.151V70.6847H195.021V72.4278ZM207.12 80.2293H202.301L201.293 83.126H199.046L203.745 70.6847H205.685L210.393 83.126H208.137L207.12 80.2293ZM202.908 78.4861H206.514L204.711 73.325L202.908 78.4861ZM220.583 70.6847V78.9988C220.583 80.3204 220.159 81.3686 219.31 82.1433C218.467 82.9124 217.342 83.2969 215.935 83.2969C214.511 83.2969 213.38 82.9181 212.542 82.1604C211.705 81.3971 211.286 80.3404 211.286 78.9903V70.6847H213.44V79.0074C213.44 79.8391 213.65 80.4742 214.072 80.9129C214.493 81.3515 215.114 81.5708 215.935 81.5708C217.598 81.5708 218.43 80.6935 218.43 78.939V70.6847H220.583ZM231.713 72.4278H227.834V83.126H225.689V72.4278H221.844V70.6847H231.713V72.4278ZM243.056 83.126H240.903V77.5975H235.34V83.126H233.179V70.6847H235.34V75.8628H240.903V70.6847H243.056V83.126ZM255.374 77.23C255.374 78.4491 255.163 79.52 254.742 80.4429C254.32 81.36 253.716 82.0664 252.93 82.562C252.15 83.0519 251.25 83.2969 250.23 83.2969C249.222 83.2969 248.322 83.0519 247.53 82.562C246.744 82.0664 246.134 81.3629 245.701 80.4514C245.274 79.54 245.057 78.489 245.052 77.2984V76.5977C245.052 75.3843 245.265 74.3134 245.693 73.3848C246.126 72.4563 246.732 71.7471 247.513 71.2572C248.299 70.7616 249.199 70.5138 250.213 70.5138C251.227 70.5138 252.124 70.7587 252.905 71.2486C253.691 71.7328 254.297 72.4335 254.725 73.3507C255.152 74.2621 255.368 75.3245 255.374 76.5379V77.23ZM253.212 76.5806C253.212 75.202 252.95 74.1453 252.426 73.4105C251.908 72.6756 251.17 72.3082 250.213 72.3082C249.279 72.3082 248.547 72.6756 248.017 73.4105C247.493 74.1396 247.225 75.1736 247.214 76.5123V77.23C247.214 78.5972 247.479 79.6539 248.008 80.4002C248.544 81.1464 249.284 81.5195 250.23 81.5195C251.187 81.5195 251.922 81.155 252.435 80.4258C252.953 79.6966 253.212 78.6314 253.212 77.23V76.5806ZM261.924 78.3323H259.514V83.126H257.352V70.6847H261.727C263.163 70.6847 264.271 71.0065 265.051 71.6502C265.832 72.2939 266.222 73.2253 266.222 74.4444C266.222 75.2761 266.02 75.9739 265.615 76.5379C265.216 77.0962 264.658 77.5262 263.94 77.8282L266.735 83.0149V83.126H264.419L261.924 78.3323ZM259.514 76.5977H261.736C262.465 76.5977 263.035 76.4154 263.445 76.0508C263.855 75.6806 264.06 75.1764 264.06 74.5384C264.06 73.8719 263.869 73.3564 263.488 72.9918C263.112 72.6272 262.548 72.4392 261.796 72.4278H259.514V76.5977ZM270.379 83.126H268.226V70.6847H270.379V83.126ZM281.594 72.4278H277.715V83.126H275.57V72.4278H271.725V70.6847H281.594V72.4278ZM287.256 76.5806L290.118 70.6847H292.511L288.341 78.5459V83.126H286.17V78.5459L281.992 70.6847H284.393L287.256 76.5806ZM307.798 77.23C307.798 78.4491 307.587 79.52 307.165 80.4429C306.744 81.36 306.14 82.0664 305.354 82.562C304.573 83.0519 303.673 83.2969 302.654 83.2969C301.645 83.2969 300.745 83.0519 299.954 82.562C299.167 82.0664 298.558 81.3629 298.125 80.4514C297.698 79.54 297.481 78.489 297.476 77.2984V76.5977C297.476 75.3843 297.689 74.3134 298.116 73.3848C298.549 72.4563 299.156 71.7471 299.936 71.2572C300.723 70.7616 301.623 70.5138 302.637 70.5138C303.651 70.5138 304.548 70.7587 305.328 71.2486C306.114 71.7328 306.721 72.4335 307.148 73.3507C307.576 74.2621 307.792 75.3245 307.798 76.5379V77.23ZM305.636 76.5806C305.636 75.202 305.374 74.1453 304.85 73.4105C304.331 72.6756 303.594 72.3082 302.637 72.3082C301.702 72.3082 300.97 72.6756 300.441 73.4105C299.917 74.1396 299.649 75.1736 299.637 76.5123V77.23C299.637 78.5972 299.902 79.6539 300.432 80.4002C300.968 81.1464 301.708 81.5195 302.654 81.5195C303.611 81.5195 304.346 81.155 304.858 80.4258C305.377 79.6966 305.636 78.6314 305.636 77.23V76.5806ZM316.945 77.8538H311.938V83.126H309.776V70.6847H317.68V72.4278H311.938V76.1277H316.945V77.8538ZM325.687 83.126H323.534V70.6847H325.687V83.126ZM338.039 83.126H335.877L330.331 74.2991V83.126H328.169V70.6847H330.331L335.894 79.5457V70.6847H338.039V83.126ZM340.419 83.126V70.6847H344.093C345.192 70.6847 346.166 70.9296 347.015 71.4195C347.87 71.9094 348.531 72.6044 348.998 73.5045C349.465 74.4045 349.698 75.4356 349.698 76.5977V77.2215C349.698 78.4007 349.462 79.4374 348.989 80.3318C348.522 81.2262 347.853 81.9155 346.981 82.3997C346.115 82.8839 345.121 83.126 343.999 83.126H340.419ZM342.58 72.4278V81.3999H343.99C345.124 81.3999 345.993 81.0467 346.597 80.3404C347.206 79.6283 347.517 78.6086 347.528 77.2813V76.5892C347.528 75.2391 347.235 74.208 346.648 73.4959C346.061 72.7838 345.209 72.4278 344.093 72.4278H342.58ZM353.958 83.126H351.805V70.6847H353.958V83.126ZM363.558 80.2293H358.739L357.731 83.126H355.484L360.183 70.6847H362.123L366.831 83.126H364.575L363.558 80.2293ZM359.346 78.4861H362.952L361.149 73.325L359.346 78.4861Z" fill="#444546"/>
<path d="M26.6871 10.6749C29.6349 10.6749 32.0245 8.28526 32.0245 5.33746C32.0245 2.38966 29.6349 0 26.6871 0C23.7393 0 21.3496 2.38966 21.3496 5.33746C21.3496 8.28526 23.7393 10.6749 26.6871 10.6749Z" fill="#EC1E26"/>
<path d="M53.3746 49.6387H0V59.9801H53.3746V49.6387Z" fill="#072C8E"/>
<path d="M32.0245 12.4092H21.3496V47.57H32.0245V12.4092Z" fill="#072C8E"/>
<path d="M15.0955 12.4092L0 47.57H15.0955H19.2149V12.4092H15.0955Z" fill="#849DAA"/>
<path d="M38.2786 12.4092L53.374 47.57H38.2786H34.1592V12.4092H38.2786Z" fill="#849DAA"/>
<path d="M39.2586 69.481H45.8237V82.7036H39.312V80.5942C38.9117 81.263 38.3246 81.7775 37.5773 82.1634C36.8301 82.5493 36.0294 82.7294 35.1488 82.7294C33.4941 82.7294 32.1598 82.0862 31.0656 80.7743C29.9981 79.4623 29.4644 77.8159 29.4644 75.7836C29.4644 74.4717 29.7045 73.2883 30.2116 72.2079C30.7187 71.1532 31.4125 70.3042 32.2932 69.6868C33.1739 69.0694 34.1613 68.7607 35.2555 68.7607C36.1095 68.7607 36.9101 68.9408 37.604 69.3267C38.2979 69.7126 38.8583 70.2271 39.2586 70.9474V69.481ZM37.7107 73.7514C37.177 73.7514 36.75 73.9315 36.4031 74.3173C36.0561 74.7032 35.896 75.1662 35.896 75.7579C35.896 76.3239 36.0561 76.7869 36.4031 77.1213C36.75 77.4558 37.177 77.6358 37.7374 77.6358C38.2712 77.6358 38.7249 77.4558 39.0451 77.0956C39.3654 76.7355 39.5255 76.2724 39.5255 75.6807C39.5255 75.1148 39.3654 74.6517 39.0184 74.2916C38.6715 73.9314 38.2445 73.7514 37.7107 73.7514Z" fill="#072C8E"/>
<path d="M46.8369 69.4805H53.3753V82.7031H46.8369V69.4805Z" fill="#072C8E"/>
<path d="M46.8369 65.3152C46.8369 64.4406 47.1572 63.6946 47.771 63.0514C48.4115 62.434 49.1587 62.0996 50.0661 62.0996C50.9735 62.0996 51.7741 62.4083 52.4146 63.0514C53.0551 63.6688 53.3753 64.4406 53.3753 65.3152C53.3753 66.1899 53.0551 66.9616 52.4146 67.579C51.7741 68.1964 51.0001 68.5051 50.0661 68.5051C49.1587 68.5051 48.3848 68.1964 47.771 67.579C47.1305 66.9616 46.8369 66.1899 46.8369 65.3152Z" fill="#072C8E"/>
<path d="M0 69.4805H6.5384V82.7031H0V69.4805Z" fill="#072C8E"/>
<path d="M7.55371 69.4846H14.0387V71.414C14.6792 69.8962 16.0136 68.79 18.1219 68.79C18.3087 68.79 18.4688 68.79 18.629 68.8158V75.5042C17.9084 74.9897 17.2145 74.8354 16.574 74.8354C15.7734 74.8354 15.1596 75.0669 14.7593 75.5042C14.3323 75.9416 14.1455 76.6876 14.1455 77.7423V82.7072H7.55371V69.4846Z" fill="#072C8E"/>
<path d="M21.9648 62.0993V70.8715C21.4844 70.2026 20.8973 69.6881 20.1767 69.3023C19.9899 69.1994 19.8031 69.1222 19.6163 69.045V73.8556C19.8565 73.727 20.1233 73.6498 20.4169 73.6498C20.9773 73.6498 21.4043 73.8299 21.7513 74.19C22.0715 74.5502 22.2583 75.0389 22.2583 75.6049C22.2583 76.1965 22.0982 76.6339 21.7513 76.994C21.431 77.3284 20.9773 77.5085 20.4169 77.5085C20.1233 77.5085 19.8565 77.4571 19.6163 77.3284L19.5629 77.277C19.4295 77.1998 19.296 77.1226 19.1893 77.0197L18.0417 76.2223C17.5614 75.8878 17.1077 75.7335 16.5739 75.7335C15.8 75.7335 15.5598 75.9908 15.4797 76.0679C15.373 76.1708 15.1328 76.5567 15.1328 77.6629V81.8303C15.9334 82.3705 16.8675 82.6278 17.8816 82.6278C18.7623 82.6278 19.6163 82.3963 20.3902 81.9589C21.1908 81.5216 21.8047 80.9042 22.2316 80.1582V82.6278H28.4765V62.0479H21.9648V62.0993Z" fill="#072C8E"/>
<path d="M0 65.3142C0 64.4396 0.320248 63.6936 0.934057 63.0505C1.57455 62.4331 2.3218 62.0986 3.22917 62.0986C4.13654 62.0986 4.93716 62.4073 5.57765 63.0505C6.21815 63.6679 6.5384 64.4396 6.5384 65.3142C6.5384 66.1889 6.21815 66.9606 5.57765 67.578C4.93716 68.1954 4.16323 68.5041 3.22917 68.5041C2.3218 68.5041 1.54787 68.1954 0.934057 67.578C0.320248 66.9606 0 66.1889 0 65.3142Z" fill="#072C8E"/>
<path d="M6.6943 53.5517V53.9707H5.70381V57.3285H5.55067L5.19227 56.942V55.7912H4.01606C3.95307 56.3322 3.87379 56.6027 3.77821 56.6027C3.69784 56.6027 3.51647 56.4404 3.23409 56.1158C2.95389 55.7912 2.81379 55.5749 2.81379 55.4667C2.81379 55.4116 2.85614 55.384 2.94086 55.384H3.50453C3.56534 55.2483 3.61096 55.0624 3.64137 54.8264C3.55231 54.848 3.43827 54.8588 3.29926 54.8588C3.07553 54.8588 2.84746 54.7723 2.61504 54.5992C2.38479 54.4261 2.26967 54.2441 2.26967 54.0533C2.26967 53.9195 2.31094 53.8064 2.39348 53.714C2.47602 53.6215 2.58463 53.5753 2.7193 53.5753C3.09073 53.5753 3.40895 53.7248 3.67395 54.0238C3.94112 54.3228 4.07471 54.6779 4.07471 55.089C4.07471 55.1972 4.06928 55.2955 4.05842 55.384H5.19227V53.9707H4.18549L3.85315 53.5517H6.6943ZM3.64789 54.6788C3.64789 54.4231 3.59575 54.2215 3.49149 54.0739C3.38723 53.9264 3.2493 53.8526 3.0777 53.8526C2.97561 53.8526 2.88981 53.8881 2.8203 53.9589C2.75297 54.0297 2.7193 54.1133 2.7193 54.2097C2.7193 54.3533 2.77795 54.4733 2.89524 54.5697C3.01471 54.6661 3.17002 54.7142 3.36116 54.7142C3.45239 54.7142 3.54797 54.7024 3.64789 54.6788Z" fill="white"/>
<path d="M8.74501 53.5517V53.9707H7.75778V57.3285H7.63722L7.24624 56.9184V53.9707H6.51966V53.5517H8.74501Z" fill="white"/>
<path fill-rule="evenodd" clip-rule="evenodd" d="M3.85315 53.5517L4.18549 53.9707H5.19227V55.384H4.05842C4.06332 55.3441 4.06712 55.3021 4.06981 55.2582C4.07308 55.2047 4.07471 55.1483 4.07471 55.089C4.07471 54.6779 3.94112 54.3228 3.67395 54.0238C3.40895 53.7248 3.09073 53.5753 2.7193 53.5753C2.58463 53.5753 2.47602 53.6215 2.39348 53.714C2.31094 53.8064 2.26967 53.9195 2.26967 54.0533C2.26967 54.2441 2.38479 54.4261 2.61504 54.5992C2.84746 54.7723 3.07553 54.8588 3.29926 54.8588C3.37421 54.8588 3.4419 54.8557 3.50233 54.8494C3.55398 54.844 3.60033 54.8363 3.64137 54.8264C3.6354 54.8727 3.62884 54.9172 3.62169 54.9597C3.59246 55.1335 3.5534 55.275 3.50453 55.384H2.94086C2.85614 55.384 2.81379 55.4116 2.81379 55.4667C2.81379 55.5749 2.95389 55.7912 3.23409 56.1158C3.51647 56.4404 3.69784 56.6027 3.77821 56.6027C3.87379 56.6027 3.95307 56.3322 4.01606 55.7912H5.19227V56.942L5.55067 57.3285H5.70381V53.9707H7.24624V56.9184L7.63722 57.3285H7.75778V53.9707H8.74501V53.5517H3.85315ZM7.89268 54.0966V57.4544H7.57667L7.11134 56.9663V54.0966H5.83871V57.4544H5.48901L5.05737 56.9889V55.9171H4.13637C4.108 56.1356 4.07598 56.3085 4.03948 56.433C4.0185 56.5046 3.99375 56.5684 3.96235 56.617C3.93492 56.6594 3.877 56.7286 3.77821 56.7286C3.71626 56.7286 3.66154 56.7002 3.62435 56.6771C3.58222 56.651 3.53668 56.6149 3.48854 56.5718C3.39186 56.4853 3.27181 56.3589 3.12936 56.1952L3.12904 56.1948C2.98724 56.0305 2.87794 55.8903 2.8034 55.7752C2.76613 55.7176 2.73603 55.664 2.71492 55.6151C2.69445 55.5677 2.67888 55.5167 2.67888 55.4667C2.67888 55.4048 2.70544 55.3424 2.76844 55.3014C2.82257 55.2662 2.88699 55.2582 2.94086 55.2582H3.41073C3.43792 55.181 3.46181 55.0878 3.48182 54.9778C3.42489 54.9825 3.36393 54.9847 3.29926 54.9847C3.0362 54.9847 2.77932 54.8826 2.53089 54.6976L2.5304 54.6972C2.2831 54.5113 2.13477 54.2969 2.13477 54.0533C2.13477 53.8936 2.18482 53.751 2.28984 53.6334C2.39929 53.5108 2.54663 53.4494 2.7193 53.4494C3.13598 53.4494 3.49059 53.6195 3.77773 53.9434C4.0662 54.2663 4.20961 54.6503 4.20961 55.089C4.20961 55.1478 4.20806 55.2042 4.20492 55.2582H5.05737V54.0966H4.11751L3.58546 53.4258H8.87991V54.0966H7.89268ZM3.50984 54.577C3.49773 54.3874 3.45107 54.2454 3.37888 54.1433C3.29652 54.0267 3.19868 53.9785 3.0777 53.9785C3.01413 53.9785 2.96451 53.9987 2.9205 54.0432C2.87598 54.0903 2.8542 54.1438 2.8542 54.2097C2.8542 54.3163 2.89552 54.402 2.98393 54.4748C3.07394 54.5472 3.19558 54.5884 3.36116 54.5884C3.40863 54.5884 3.45816 54.5846 3.50984 54.577ZM3.64789 54.6788C3.54797 54.7024 3.45239 54.7142 3.36116 54.7142C3.17002 54.7142 3.01471 54.6661 2.89524 54.5697C2.77795 54.4733 2.7193 54.3533 2.7193 54.2097C2.7193 54.1133 2.75297 54.0297 2.8203 53.9589C2.88981 53.8881 2.97561 53.8526 3.0777 53.8526C3.2493 53.8526 3.38723 53.9264 3.49149 54.0739C3.59575 54.2215 3.64789 54.4231 3.64789 54.6788Z" fill="white"/>
<path d="M17.4512 53.7805V54.2021H16.4421V57.5803H16.3724L15.9209 57.1855V56.3988C15.516 56.6383 15.174 56.758 14.8952 56.758C14.6119 56.758 14.3364 56.6363 14.0686 56.3929C13.8031 56.1475 13.6703 55.906 13.6703 55.6686C13.6703 55.4271 13.8186 55.2262 14.1151 55.0659C14.4117 54.9037 14.6894 54.8225 14.9483 54.8225C15.059 54.8225 15.1796 54.8492 15.3101 54.9027C15.4407 54.9541 15.6443 55.0877 15.9209 55.3034V54.2021H13.3317V53.7805H17.4512ZM14.6263 55.3895L15.4164 56.1435C15.6443 56.0367 15.7859 55.9397 15.8413 55.8526C15.8988 55.7636 15.9254 55.6478 15.9209 55.5053C15.7129 55.3252 15.496 55.2351 15.2703 55.2351C15.049 55.2351 14.8343 55.2866 14.6263 55.3895ZM15.2537 56.2118L14.4637 55.4519C14.145 55.5963 13.9857 55.7616 13.9857 55.9476C13.9857 56.0584 14.0443 56.1633 14.1616 56.2623C14.2789 56.3593 14.4139 56.4077 14.5666 56.4077C14.7325 56.4077 14.9616 56.3424 15.2537 56.2118Z" fill="white"/>
<path d="M19.5372 53.7805V54.2021H18.5314V57.5714H18.382L18.0103 57.1915V54.2021H17.27V53.7805H18.3389C18.1154 53.3352 17.8753 53.0008 17.6186 52.7771C17.3618 52.5535 17.0885 52.4417 16.7986 52.4417C16.5574 52.4417 16.3759 52.5011 16.2542 52.6198C16.1325 52.7386 16.0716 52.9167 16.0716 53.1542C16.0716 53.354 16.1214 53.5628 16.221 53.7805H15.8227C15.6412 53.5351 15.5505 53.2769 15.5505 53.0057C15.5505 52.7227 15.6545 52.4912 15.8625 52.3111C16.0683 52.131 16.3306 52.0409 16.6492 52.0409C17.1405 52.0409 17.5544 52.2309 17.8908 52.6109C18.1275 52.8781 18.3411 53.268 18.5314 53.7805H19.5372Z" fill="white"/>
<path fill-rule="evenodd" clip-rule="evenodd" d="M16.221 53.7805C16.2017 53.7382 16.1842 53.6963 16.1686 53.6546C16.104 53.482 16.0716 53.3152 16.0716 53.1542C16.0716 52.9167 16.1325 52.7386 16.2542 52.6198C16.3759 52.5011 16.5574 52.4417 16.7986 52.4417C17.0885 52.4417 17.3618 52.5535 17.6186 52.7771C17.8505 52.9792 18.0688 53.2717 18.2737 53.6546C18.2956 53.6956 18.3173 53.7375 18.3389 53.7805H16.221ZM18.1224 53.6546C17.9313 53.3082 17.7319 53.0481 17.5265 52.8692C17.2892 52.6624 17.0474 52.5676 16.7986 52.5676C16.5802 52.5676 16.4397 52.621 16.3517 52.7068C16.2629 52.7935 16.2066 52.9347 16.2066 53.1542C16.2066 53.3116 16.2408 53.4782 16.3121 53.6546H18.1224ZM15.5853 53.6546H13.1968V54.328H15.786V55.0403C15.6135 54.9162 15.4717 54.8298 15.3635 54.787C15.2209 54.7288 15.0819 54.6966 14.9483 54.6966C14.6589 54.6966 14.3577 54.7873 14.0472 54.9572C13.7246 55.1316 13.5354 55.3678 13.5354 55.6686C13.5354 55.9526 13.6945 56.2244 13.9737 56.4824L13.9745 56.4831C14.2592 56.7418 14.5667 56.8839 14.8952 56.8839C15.1581 56.8839 15.4563 56.7913 15.786 56.6203V57.2401L16.3191 57.7062H16.577V54.328H17.8754V57.2403L18.3225 57.6973H18.6663V54.328H19.6721V53.6546H18.6268C18.4417 53.1754 18.2321 52.7986 17.9948 52.5307C17.6349 52.1243 17.1841 51.915 16.6492 51.915C16.3012 51.915 16.0046 52.0143 15.7705 52.219C15.5331 52.4247 15.4156 52.6905 15.4156 53.0057C15.4156 53.2317 15.473 53.4483 15.5853 53.6546ZM15.7382 53.6546C15.7638 53.697 15.7919 53.7389 15.8227 53.7805H13.3317V54.2021H15.9209V55.3034C15.8739 55.2667 15.8289 55.2324 15.786 55.2004C15.5771 55.0446 15.4185 54.9454 15.3101 54.9027C15.1796 54.8492 15.059 54.8225 14.9483 54.8225C14.6894 54.8225 14.4117 54.9037 14.1151 55.0659C13.8186 55.2262 13.6703 55.4271 13.6703 55.6686C13.6703 55.906 13.8031 56.1475 14.0686 56.3929C14.3364 56.6363 14.6119 56.758 14.8952 56.758C15.1425 56.758 15.4395 56.6638 15.786 56.4754C15.8302 56.4514 15.8752 56.4259 15.9209 56.3988V57.1855L16.3724 57.5803H16.4421V54.2021H18.0103V57.1915L18.382 57.5714H18.5314V54.2021H19.5372V53.7805H18.5314C18.3411 53.268 18.1275 52.8781 17.8908 52.6109C17.5544 52.2309 17.1405 52.0409 16.6492 52.0409C16.3306 52.0409 16.0683 52.131 15.8625 52.3111C15.6545 52.4912 15.5505 52.7227 15.5505 53.0057C15.5505 53.2309 15.6131 53.4472 15.7382 53.6546ZM14.4637 55.4519C14.145 55.5963 13.9857 55.7616 13.9857 55.9476C13.9857 56.0584 14.0443 56.1633 14.1616 56.2623C14.2789 56.3593 14.4139 56.4077 14.5666 56.4077C14.707 56.4077 14.8927 56.361 15.1235 56.2674C15.1654 56.2504 15.2088 56.2319 15.2537 56.2118L14.4637 55.4519ZM15.4164 56.1435C15.6443 56.0367 15.7859 55.9397 15.8413 55.8526C15.8988 55.7636 15.9254 55.6478 15.9209 55.5053C15.7129 55.3252 15.496 55.2351 15.2703 55.2351C15.0945 55.2351 14.9228 55.2676 14.7554 55.3326C14.7121 55.3494 14.6691 55.3684 14.6263 55.3895L15.4164 56.1435ZM14.8578 55.4303L15.4427 55.9886C15.5119 55.9532 15.5687 55.92 15.6138 55.8891C15.6779 55.8452 15.7108 55.8111 15.7252 55.7884L15.7257 55.7876C15.76 55.7346 15.7827 55.6613 15.7861 55.5618C15.6113 55.4228 15.44 55.361 15.2703 55.361C15.1306 55.361 14.9933 55.3839 14.8578 55.4303ZM15.0228 56.1705L14.4367 55.6067C14.1955 55.7318 14.1206 55.85 14.1206 55.9476C14.1206 56.012 14.1531 56.0852 14.2516 56.1685C14.3447 56.2453 14.448 56.2818 14.5666 56.2818C14.6725 56.2818 14.823 56.2479 15.0228 56.1705Z" fill="white"/>
<path d="M26.3912 53.7833V54.2056H25.3854V57.5803H25.236L24.8642 57.1997V54.2056H24.1239V53.7833H24.9771C24.7071 53.5514 24.5721 53.2947 24.5721 53.0132C24.5721 52.6802 24.7646 52.4255 25.1497 52.2491C25.4551 52.1103 25.8125 52.0409 26.2219 52.0409C26.8659 52.0409 27.4534 52.1866 27.9846 52.478C28.5179 52.7674 28.9937 53.2025 29.412 53.7833H29.1862C28.7635 53.3373 28.3121 53.0033 27.8319 52.7813C27.3516 52.5573 26.8437 52.4453 26.3082 52.4453C25.9032 52.4453 25.6 52.5058 25.3986 52.6267C25.1973 52.7456 25.0966 52.924 25.0966 53.1619C25.0966 53.374 25.1663 53.5811 25.3057 53.7833H26.3912Z" fill="white"/>
<path d="M30.3295 53.7833V54.2056H29.3203V57.5803H29.1809L28.7992 57.1997V56.2126C28.4207 56.4465 28.0855 56.5634 27.7934 56.5634C27.5234 56.5634 27.2567 56.4445 26.9933 56.2066C26.7322 55.9668 26.6016 55.7428 26.6016 55.5347C26.6016 55.3979 26.6614 55.268 26.7809 55.1451C26.9004 55.0222 27.0774 54.9271 27.312 54.8597C27.5488 54.7903 27.7491 54.7556 27.9129 54.7556C28.2072 54.7556 28.5026 54.8884 28.7992 55.1541V54.2056H26.2099V53.7833H30.3295ZM28.7992 55.5049V55.3562C28.6088 55.2314 28.4185 55.1689 28.2282 55.1689C27.9671 55.1689 27.6916 55.2334 27.4016 55.3622C27.1117 55.4891 26.9668 55.6328 26.9668 55.7933C26.9668 55.9202 27.0155 56.0263 27.1128 56.1115C27.2102 56.1947 27.3242 56.2364 27.4548 56.2364C27.6052 56.2364 27.862 56.1412 28.2249 55.9509C28.5878 55.7586 28.7793 55.61 28.7992 55.5049Z" fill="white"/>
<path fill-rule="evenodd" clip-rule="evenodd" d="M25.3057 53.7833C25.1663 53.5811 25.0966 53.374 25.0966 53.1619C25.0966 52.924 25.1973 52.7456 25.3986 52.6267C25.6 52.5058 25.9032 52.4453 26.3082 52.4453C26.8437 52.4453 27.3516 52.5573 27.8319 52.7813C28.2658 52.9819 28.6762 53.274 29.0632 53.6574C29.1044 53.6984 29.1455 53.7403 29.1862 53.7833H25.3057ZM28.8758 53.6574C28.5247 53.3257 28.1567 53.072 27.772 52.8941L27.7715 52.8939C27.31 52.6786 26.8228 52.5712 26.3082 52.5712C25.9132 52.5712 25.6409 52.6309 25.4716 52.7326L25.4708 52.7331C25.3116 52.8271 25.2315 52.9636 25.2315 53.1619C25.2315 53.3274 25.2799 53.4922 25.3815 53.6574H28.8758ZM29.412 53.7833H30.3295V54.2056H29.3203V57.5803H29.1809L28.7992 57.1997V56.2126C28.7536 56.2408 28.7086 56.2672 28.6643 56.292C28.3406 56.473 28.0503 56.5634 27.7934 56.5634C27.5234 56.5634 27.2567 56.4445 26.9933 56.2066C26.7322 55.9668 26.6016 55.7428 26.6016 55.5347C26.6016 55.3979 26.6614 55.268 26.7809 55.1451C26.9004 55.0222 27.0774 54.9271 27.312 54.8597C27.5488 54.7903 27.7491 54.7556 27.9129 54.7556C28.1625 54.7556 28.413 54.8512 28.6643 55.0423C28.7092 55.0765 28.7542 55.1138 28.7992 55.1541V54.2056H25.3854V57.5803H25.236L24.8642 57.1997V54.2056H24.1239V53.7833H24.9771C24.9291 53.7421 24.8854 53.7002 24.846 53.6574C24.6634 53.4595 24.5721 53.2447 24.5721 53.0132C24.5721 52.6802 24.7646 52.4255 25.1497 52.2491C25.4551 52.1103 25.8125 52.0409 26.2219 52.0409C26.8659 52.0409 27.4534 52.1866 27.9846 52.478C28.4786 52.7461 28.9233 53.1393 29.3187 53.6574C29.3501 53.6986 29.3812 53.7406 29.412 53.7833ZM29.4833 53.6574H30.4644V54.3314H29.4552V57.7062H29.1224L28.6643 57.2495V56.4377C28.3541 56.6015 28.063 56.6893 27.7934 56.6893C27.4774 56.6893 27.1788 56.5494 26.8995 56.2971L26.8987 56.2964C26.6276 56.0474 26.4667 55.7927 26.4667 55.5347C26.4667 55.3602 26.544 55.2014 26.681 55.0605C26.8217 54.9158 27.0228 54.8111 27.2719 54.7395C27.5157 54.6681 27.7303 54.6297 27.9129 54.6297C28.1715 54.6297 28.4222 54.7186 28.6643 54.8833V54.3314H25.5203V57.7062H25.1764L24.7293 57.2485V54.3314H23.989V53.6574H24.6735C24.5189 53.4619 24.4372 53.2468 24.4372 53.0132C24.4372 52.8226 24.4928 52.6499 24.6062 52.4999C24.7187 52.351 24.883 52.231 25.0902 52.1361L25.0906 52.1359C25.4178 51.9872 25.7962 51.915 26.2219 51.915C26.8887 51.915 27.4999 52.0662 28.0526 52.3693C28.5895 52.6607 29.0658 53.0917 29.4833 53.6574ZM27.4589 55.4762C27.1747 55.6005 27.1017 55.7134 27.1017 55.7933C27.1017 55.8859 27.1353 55.9583 27.2046 56.0192C27.2772 56.0811 27.3586 56.1105 27.4548 56.1105C27.5042 56.1105 27.5869 56.0938 27.7104 56.048C27.831 56.0033 27.9801 55.9349 28.1585 55.8413C28.3369 55.7468 28.4676 55.6659 28.5544 55.5984C28.5978 55.5648 28.6271 55.5368 28.6456 55.5146C28.6565 55.5016 28.6618 55.4926 28.6643 55.4876V55.4237C28.5125 55.3352 28.3676 55.2948 28.2282 55.2948C27.9912 55.2948 27.7355 55.3533 27.4597 55.4759L27.4589 55.4762ZM28.7992 55.3562V55.5049C28.7793 55.61 28.5878 55.7586 28.2249 55.9509C27.862 56.1412 27.6052 56.2364 27.4548 56.2364C27.3242 56.2364 27.2102 56.1947 27.1128 56.1115C27.0155 56.0263 26.9668 55.9202 26.9668 55.7933C26.9668 55.6328 27.1117 55.4891 27.4016 55.3622C27.6916 55.2334 27.9671 55.1689 28.2282 55.1689C28.4185 55.1689 28.6088 55.2314 28.7992 55.3562Z" fill="white"/>
<path d="M37.0848 53.7833V54.2056H36.1227V57.5803H35.9799L35.6242 57.1997V54.2056H34.9162V53.7833H35.7322C35.4739 53.5514 35.3448 53.2947 35.3448 53.0132C35.3448 52.6802 35.529 52.4255 35.8973 52.2491C36.1894 52.1103 36.5313 52.0409 36.9229 52.0409C37.5389 52.0409 38.1009 52.1866 38.6089 52.478C39.1191 52.7674 39.5742 53.2025 39.9743 53.7833H39.7584C39.354 53.3373 38.9222 53.0033 38.4629 52.7813C38.0035 52.5573 37.5177 52.4453 37.0055 52.4453C36.6181 52.4453 36.3281 52.5058 36.1355 52.6267C35.9428 52.7456 35.8465 52.924 35.8465 53.1619C35.8465 53.374 35.9132 53.5811 36.0465 53.7833H37.0848Z" fill="white"/>
<path d="M40.8519 53.7833V54.2056H39.8866V57.5803H39.7533L39.3881 57.1997V56.2126C39.0262 56.4465 38.7055 56.5634 38.426 56.5634C38.1678 56.5634 37.9127 56.4445 37.6608 56.2066C37.411 55.9668 37.2861 55.7428 37.2861 55.5347C37.2861 55.3979 37.3433 55.268 37.4576 55.1451C37.5719 55.0222 37.7413 54.9271 37.9656 54.8597C38.1921 54.7903 38.3837 54.7556 38.5404 54.7556C38.8219 54.7556 39.1045 54.8884 39.3881 55.1541V54.2056H36.9115V53.7833H40.8519ZM39.3881 55.5049V55.3562C39.2061 55.2314 39.024 55.1689 38.842 55.1689C38.5922 55.1689 38.3287 55.2334 38.0514 55.3622C37.7741 55.4891 37.6354 55.6328 37.6354 55.7933C37.6354 55.9202 37.682 56.0263 37.7751 56.1115C37.8683 56.1947 37.9773 56.2364 38.1022 56.2364C38.2461 56.2364 38.4917 56.1412 38.8388 55.9509C39.186 55.7586 39.3691 55.61 39.3881 55.5049Z" fill="white"/>
<path fill-rule="evenodd" clip-rule="evenodd" d="M36.0465 53.7833C35.9132 53.5811 35.8465 53.374 35.8465 53.1619C35.8465 52.924 35.9428 52.7456 36.1355 52.6267C36.3281 52.5058 36.6181 52.4453 37.0055 52.4453C37.5177 52.4453 38.0035 52.5573 38.4629 52.7813C38.8779 52.9819 39.2705 53.274 39.6406 53.6574C39.6801 53.6984 39.7194 53.7403 39.7584 53.7833H36.0465ZM39.4572 53.6574C39.121 53.3249 38.7687 53.0709 38.4008 52.8931L38.4004 52.8929C37.9601 52.6782 37.4957 52.5712 37.0055 52.5712C36.6288 52.5712 36.3707 52.6307 36.2107 52.7312L36.2099 52.7317C36.0594 52.8246 35.9814 52.9611 35.9814 53.1619C35.9814 53.3279 36.0277 53.4926 36.1241 53.6574H39.4572ZM39.9743 53.7833H40.8519V54.2056H39.8866V57.5803H39.7533L39.3881 57.1997V56.2126C39.3425 56.2421 39.2975 56.2697 39.2532 56.2955C38.946 56.4741 38.6702 56.5634 38.426 56.5634C38.1678 56.5634 37.9127 56.4445 37.6608 56.2066C37.411 55.9668 37.2861 55.7428 37.2861 55.5347C37.2861 55.3979 37.3433 55.268 37.4576 55.1451C37.5719 55.0222 37.7413 54.9271 37.9656 54.8597C38.1921 54.7903 38.3837 54.7556 38.5404 54.7556C38.7772 54.7556 39.0149 54.8496 39.2532 55.0377C39.2982 55.0731 39.3431 55.1119 39.3881 55.1541V54.2056H36.1227V57.5803H35.9799L35.6242 57.1997V54.2056H34.9162V53.7833H35.7322C35.6863 53.7421 35.6446 53.7002 35.6068 53.6574C35.4322 53.4595 35.3448 53.2447 35.3448 53.0132C35.3448 52.6802 35.529 52.4255 35.8973 52.2491C36.1894 52.1103 36.5313 52.0409 36.9229 52.0409C37.5389 52.0409 38.1009 52.1866 38.6089 52.478C39.0815 52.7461 39.5069 53.1393 39.885 53.6574C39.9151 53.6986 39.9448 53.7406 39.9743 53.7833ZM40.0474 53.6574H40.9868V54.3314H40.0215V57.7062H39.693L39.2532 57.2479V56.4425C38.96 56.6028 38.6834 56.6893 38.426 56.6893C38.1196 56.6893 37.8321 56.5475 37.5649 56.2951L37.5641 56.2944C37.304 56.0447 37.1512 55.7906 37.1512 55.5347C37.1512 55.362 37.2244 55.2038 37.3557 55.0626C37.4908 54.9173 37.6843 54.812 37.924 54.74C38.1576 54.6684 38.3641 54.6297 38.5404 54.6297C38.7868 54.6297 39.0246 54.7167 39.2532 54.8768V54.3314H36.2577V57.7062H35.9185L35.4893 57.2469V54.3314H34.7813V53.6574H35.4371C35.2881 53.4613 35.2099 53.2462 35.2099 53.0132C35.2099 52.8238 35.2627 52.6519 35.3711 52.502C35.4788 52.3531 35.6364 52.2325 35.8357 52.1371L35.8361 52.1369C36.1505 51.9875 36.5141 51.915 36.9229 51.915C37.5629 51.915 38.1494 52.0667 38.6793 52.3706C39.1931 52.6621 39.6485 53.0929 40.0474 53.6574ZM38.1108 55.4752C37.8418 55.5983 37.7703 55.7105 37.7703 55.7933C37.7703 55.8877 37.8033 55.9607 37.869 56.0211C37.9378 56.0824 38.0135 56.1105 38.1022 56.1105C38.1471 56.1105 38.2247 56.0944 38.3426 56.0487C38.4575 56.0042 38.5997 55.936 38.7702 55.8425C38.9406 55.7481 39.0653 55.6674 39.148 55.6002C39.1893 55.5667 39.2172 55.5389 39.2348 55.5168C39.2457 55.5031 39.2509 55.4939 39.2532 55.4887V55.4221C39.1091 55.3342 38.9725 55.2948 38.842 55.2948C38.6175 55.2948 38.3745 55.3527 38.1115 55.4749L38.1108 55.4752ZM39.3881 55.3562V55.5049C39.3691 55.61 39.186 55.7586 38.8388 55.9509C38.4917 56.1412 38.2461 56.2364 38.1022 56.2364C37.9773 56.2364 37.8683 56.1947 37.7751 56.1115C37.682 56.0263 37.6354 55.9202 37.6354 55.7933C37.6354 55.6328 37.7741 55.4891 38.0514 55.3622C38.3287 55.2334 38.5922 55.1689 38.842 55.1689C39.024 55.1689 39.2061 55.2314 39.3881 55.3562Z" fill="white"/>
<path d="M49.1401 54.2225H48.1913V57.5803H48.0665L47.7045 57.1879V56.3115L46.3718 57.2174L46.0628 56.8781L47.4548 55.987C47.0699 55.9103 46.7578 55.8099 46.5185 55.686C46.2792 55.5621 46.1169 55.4362 46.0316 55.3083C45.9484 55.1785 45.9068 55.0093 45.9068 54.8008V54.2225H45.4386V53.8035H49.1401V54.2225ZM47.7045 55.8778V54.2225H46.3874V54.7536C46.3874 54.9346 46.4061 55.0752 46.4436 55.1755C46.4831 55.2759 46.5549 55.3791 46.6589 55.4854C46.765 55.5896 46.9159 55.6801 47.1115 55.7568C47.3071 55.8316 47.5047 55.8719 47.7045 55.8778Z" fill="white"/>
<path d="M51.1045 53.8035V54.2225H50.1589V57.5803H50.0434L49.6688 57.1702V54.2225H48.9729V53.8035H51.1045Z" fill="white"/>
<path fill-rule="evenodd" clip-rule="evenodd" d="M48.3263 54.3484V57.7062H48.0046L47.5696 57.2346V56.559L46.35 57.3879L45.8631 56.8532L47.1293 56.0427C46.8665 55.975 46.6405 55.8932 46.453 55.7961C46.2059 55.6681 46.0202 55.5294 45.9171 55.3749L45.9158 55.373C45.8162 55.2176 45.7719 55.0238 45.7719 54.8008V54.3484H45.3037V53.6776H51.2394V54.3484H50.2938V57.7062H49.9811L49.5339 57.2166V54.3484H48.3263ZM49.6688 54.2225V57.1702L50.0434 57.5803H50.1589V54.2225H51.1045V53.8035H45.4386V54.2225H45.9068V54.8008C45.9068 55.0093 45.9484 55.1785 46.0316 55.3083C46.1169 55.4362 46.2792 55.5621 46.5185 55.686C46.7196 55.7902 46.9723 55.8777 47.2764 55.9485C47.334 55.9619 47.3935 55.9748 47.4548 55.987L46.0628 56.8781L46.3718 57.2174L47.7045 56.3115V57.1879L48.0665 57.5803H48.1913V54.2225H49.6688ZM47.7045 54.2225V55.8778C47.6594 55.8765 47.6144 55.8734 47.5696 55.8685C47.4156 55.8519 47.2629 55.8147 47.1115 55.7568C46.9159 55.6801 46.765 55.5896 46.6589 55.4854C46.5549 55.3791 46.4831 55.2759 46.4436 55.1755C46.4061 55.0752 46.3874 54.9346 46.3874 54.7536V54.2225H47.7045ZM46.5223 54.3484V54.7536C46.5223 54.9282 46.5406 55.0522 46.5706 55.1331C46.6024 55.2133 46.6625 55.3022 46.7576 55.3995C46.8469 55.4869 46.9796 55.5685 47.1632 55.6405C47.2984 55.6922 47.4338 55.7257 47.5696 55.7417V54.3484H46.5223Z" fill="white"/>
</svg>
