<svg width="25" height="25" viewBox="0 0 25 25" fill="none" xmlns="http://www.w3.org/2000/svg">
<path d="M12.5039 5.04844C12.5472 5.04844 12.5822 5.0835 12.5822 5.12676V5.82162C12.5822 5.86488 12.5472 5.89994 12.5039 5.89994H11.5845C11.5412 5.89994 11.5061 5.93501 11.5061 5.97826V12.6456C11.5061 12.6889 11.4711 12.724 11.4278 12.724H11.2876C11.2647 12.724 11.243 12.7139 11.2281 12.6965L10.5731 11.9304C10.561 11.9162 10.5544 11.8982 10.5544 11.8795V9.21001C10.1098 9.35792 9.67127 9.41589 9.23882 9.38391C9.25903 9.49584 9.26914 9.60578 9.26914 9.71372C9.26914 10.1774 9.11354 10.5552 8.80234 10.8471C8.49518 11.1349 8.09506 11.2788 7.60199 11.2788C6.96343 11.2788 6.41378 10.997 5.95304 10.4333C5.4923 9.86563 5.21141 9.19602 5.11037 8.42447H5.34801C5.38591 8.42447 5.41829 8.45166 5.42568 8.48884C5.53594 9.04378 5.76427 9.50604 6.11066 9.87562C6.4744 10.2594 6.8826 10.4513 7.33525 10.4513C7.63028 10.4513 7.90511 10.3553 8.15973 10.1635C8.41435 9.97156 8.54166 9.70572 8.54166 9.36592C8.54166 9.17403 8.48103 8.99214 8.35979 8.82024C8.23854 8.64434 8.06071 8.51442 7.8263 8.43046C7.59593 8.34252 7.40598 8.29854 7.25644 8.29854C7.11061 8.29854 6.89735 8.32738 6.61668 8.38505C6.58876 8.39079 6.55982 8.3811 6.54118 8.35953L5.89241 7.60894C6.63606 7.55298 7.23421 7.40706 7.68687 7.1712C8.13952 6.93134 8.36585 6.64351 8.36585 6.3077C8.36585 6.09583 8.27289 5.91993 8.08698 5.78001C7.90511 5.64009 7.68485 5.57013 7.42619 5.57013C6.98243 5.57013 6.41085 5.75696 5.71144 6.13062C5.67634 6.14937 5.63265 6.13921 5.60976 6.10666L5.11037 5.39624C5.68832 5.16437 6.24403 5.04844 6.77752 5.04844C7.39992 5.04844 7.90107 5.20435 8.28098 5.51617C8.66492 5.82399 8.8569 6.23375 8.8569 6.74545C8.8569 7.04128 8.76192 7.29913 8.57197 7.519C8.38201 7.73887 8.09708 7.92076 7.71718 8.06468C8.37999 8.3685 8.92965 8.52041 9.36613 8.52041C10.1583 8.52041 10.5544 8.13863 10.5544 7.37508V5.97826C10.5544 5.93501 10.5193 5.89994 10.476 5.89994H9.6706C9.64676 5.89994 9.62422 5.88909 9.60936 5.87045L9.05528 5.17559C9.01437 5.12429 9.0509 5.04844 9.11652 5.04844H12.5039Z" fill="#444546"/>
<path fill-rule="evenodd" clip-rule="evenodd" d="M12.5815 4.97168C12.6247 4.97168 12.6598 5.00674 12.6598 5.05V5.89837C12.6598 5.94163 12.6247 5.97669 12.5815 5.97669H11.662C11.6188 5.97669 11.5837 6.01176 11.5837 6.05501V12.7224C11.5837 12.7656 11.5486 12.8007 11.5054 12.8007H11.2516C11.2287 12.8007 11.2069 12.7907 11.192 12.7733L10.4955 11.9585C10.4834 11.9443 10.4767 11.9263 10.4767 11.9076V9.42083C10.4767 9.36828 10.426 9.33065 10.3753 9.34449C10.0556 9.43182 9.73821 9.4734 9.42347 9.46885C9.37478 9.46815 9.33612 9.51043 9.34018 9.55896C9.34453 9.6109 9.34671 9.66249 9.34671 9.71371C9.34671 10.1963 9.18389 10.595 8.8557 10.9028C8.53176 11.2063 8.11138 11.3556 7.60197 11.3556C6.93634 11.3556 6.3657 11.0603 5.89267 10.4815C5.42239 9.90212 5.13613 9.21886 5.03339 8.43432C5.02738 8.38842 5.06311 8.34771 5.10941 8.34771H5.41415C5.45138 8.34771 5.48326 8.37437 5.48986 8.41101C5.59268 8.98209 5.8192 9.45173 6.16742 9.82331C6.51924 10.1944 6.90786 10.3745 7.33523 10.3745C7.6118 10.3745 7.87035 10.285 8.11268 10.1024C8.34645 9.92621 8.46403 9.68379 8.46403 9.36591C8.46403 9.19119 8.40916 9.02441 8.29612 8.86415L8.29564 8.86347C8.18498 8.70292 8.02145 8.58199 7.79986 8.50263L7.79833 8.50208C7.57183 8.41561 7.39218 8.37529 7.25642 8.37529C7.11135 8.37529 6.88958 8.40582 6.58756 8.46955C6.5597 8.47543 6.53084 8.4657 6.51222 8.44416L5.83403 7.65953C5.79267 7.61169 5.82344 7.53715 5.8865 7.53241C6.62388 7.47691 7.21047 7.3326 7.65044 7.10341C8.09191 6.86942 8.28822 6.60216 8.28822 6.3077C8.28822 6.1222 8.20861 5.96801 8.03997 5.84109L8.03931 5.84059C7.87273 5.71243 7.66979 5.64689 7.42616 5.64689C6.98933 5.64689 6.41128 5.83717 5.68729 6.23104C5.65241 6.25002 5.60883 6.23982 5.58599 6.20733L5.04696 5.44051C5.01849 5.4 5.03523 5.34354 5.08118 5.3251C5.66685 5.09014 6.23247 4.97168 6.77749 4.97168C7.41297 4.97168 7.93305 5.13103 8.33016 5.45681C8.73301 5.77994 8.93447 6.212 8.93447 6.74544C8.93447 7.0591 8.83319 7.33474 8.63093 7.56886C8.49129 7.7305 8.30507 7.87059 8.07445 7.99028C8.01381 8.02176 8.01482 8.11124 8.07819 8.13679C8.58945 8.34296 9.01812 8.44365 9.36611 8.44365C9.75072 8.44365 10.0248 8.35096 10.2031 8.1791C10.381 8.00761 10.4767 7.74451 10.4767 7.37508V6.05501C10.4767 6.01176 10.4417 5.97669 10.3984 5.97669H9.63294C9.60911 5.97669 9.58657 5.96584 9.57171 5.9472L8.89522 5.09883C8.85432 5.04753 8.89084 4.97168 8.95646 4.97168H12.5815ZM10.476 5.89994C10.5193 5.89994 10.5544 5.93501 10.5544 5.97826V7.37508C10.5544 8.13863 10.1583 8.52041 9.36613 8.52041C8.95135 8.52041 8.43435 8.38323 7.8152 8.10887C7.78279 8.09451 7.75014 8.07979 7.71718 8.06468C7.75105 8.05185 7.78414 8.03871 7.8165 8.02527C8.14711 7.88802 8.39895 7.71926 8.57197 7.519C8.76192 7.29913 8.8569 7.04128 8.8569 6.74545C8.8569 6.23375 8.66492 5.82399 8.28098 5.51617C7.90107 5.20435 7.39992 5.04844 6.77752 5.04844C6.26685 5.04844 5.73579 5.15466 5.18439 5.36711C5.15975 5.37661 5.1351 5.38632 5.11037 5.39624L5.60976 6.10666C5.63265 6.13921 5.67634 6.14937 5.71144 6.13062C6.41085 5.75696 6.98243 5.57013 7.42619 5.57013C7.68485 5.57013 7.90511 5.64009 8.08698 5.78001C8.27289 5.91993 8.36585 6.09583 8.36585 6.3077C8.36585 6.64351 8.13952 6.93134 7.68687 7.1712C7.25373 7.39689 6.68736 7.54022 5.98779 7.6012C5.95626 7.60395 5.92449 7.60653 5.89241 7.60894L6.54118 8.35953C6.55982 8.3811 6.58876 8.39079 6.61668 8.38505C6.89735 8.32738 7.11061 8.29854 7.25644 8.29854C7.40598 8.29854 7.59593 8.34252 7.8263 8.43046C8.06071 8.51442 8.23854 8.64434 8.35979 8.82024C8.48103 8.99214 8.54166 9.17403 8.54166 9.36592C8.54166 9.70572 8.41435 9.97156 8.15973 10.1635C7.90511 10.3553 7.63028 10.4513 7.33525 10.4513C6.8826 10.4513 6.4744 10.2594 6.11066 9.87562C5.76427 9.50604 5.53594 9.04378 5.42568 8.48884C5.41829 8.45166 5.38591 8.42447 5.34801 8.42447H5.11037C5.11374 8.45017 5.11728 8.47575 5.12104 8.50122C5.2303 9.24051 5.50765 9.88453 5.95304 10.4333C6.41378 10.997 6.96343 11.2788 7.60199 11.2788C8.09506 11.2788 8.49518 11.1349 8.80234 10.8471C9.11354 10.5552 9.26914 10.1774 9.26914 9.71372C9.26914 9.6309 9.26316 9.54691 9.25127 9.46174C9.24766 9.43591 9.24353 9.40996 9.23882 9.38391C9.26534 9.38587 9.29186 9.38748 9.31842 9.38877C9.69982 9.40722 10.0859 9.35594 10.4767 9.23493C10.5026 9.22692 10.5285 9.21862 10.5544 9.21001V11.8795C10.5544 11.8982 10.561 11.9162 10.5731 11.9304L11.2281 12.6965C11.243 12.7139 11.2647 12.724 11.2876 12.724H11.4278C11.4711 12.724 11.5061 12.6889 11.5061 12.6456V5.97826C11.5061 5.93501 11.5412 5.89994 11.5845 5.89994H12.5039C12.5472 5.89994 12.5822 5.86488 12.5822 5.82162V5.12676C12.5822 5.0835 12.5472 5.04844 12.5039 5.04844H9.11652C9.0509 5.04844 9.01437 5.12429 9.05528 5.17559L9.60936 5.87045C9.62422 5.88909 9.64676 5.89994 9.6706 5.89994H10.476Z" fill="#444546"/>
<path d="M20.1804 20.4548C20.2022 20.5064 20.1643 20.5636 20.1082 20.5636H19.0864C19.0544 20.5636 19.0256 20.5441 19.0137 20.5144L18.1161 18.2719C18.1042 18.2422 18.0754 18.2227 18.0434 18.2227H14.8166C14.784 18.2227 14.7548 18.2429 14.7433 18.2734L13.899 20.5129C13.8875 20.5434 13.8583 20.5636 13.8257 20.5636H12.8786C12.8232 20.5636 12.7854 20.5077 12.8059 20.4563L15.8105 12.9183C15.8224 12.8885 15.8512 12.8689 15.8832 12.8689H16.9168C16.9483 12.8689 16.9767 12.8878 16.9889 12.9167L20.1804 20.4548ZM17.775 17.4144C17.1213 15.7488 16.7526 14.804 16.6691 14.58C16.5856 14.3526 16.493 14.0499 16.3913 13.672H16.364C16.2623 14.1899 16.1261 14.6693 15.9554 15.1102L15.1034 17.3077C15.0835 17.3591 15.1213 17.4144 15.1764 17.4144H17.775Z" fill="#444546"/>
<path fill-rule="evenodd" clip-rule="evenodd" d="M20.2841 20.5219C20.306 20.5736 20.2681 20.6308 20.212 20.6308H19.0386C19.0066 20.6308 18.9778 20.6113 18.9659 20.5816L18.0683 18.3391C18.0564 18.3093 18.0276 18.2898 17.9955 18.2898H14.8654C14.8328 18.2898 14.8037 18.31 14.7922 18.3405L13.9478 20.5801C13.9363 20.6106 13.9072 20.6308 13.8746 20.6308H12.7772C12.7218 20.6308 12.6839 20.5749 12.7044 20.5235L15.7626 12.8511C15.7745 12.8213 15.8033 12.8018 15.8353 12.8018H16.9637C16.9952 12.8018 17.0236 12.8206 17.0358 12.8495L20.2841 20.5219ZM14.7433 18.2734C14.7548 18.2429 14.784 18.2227 14.8166 18.2227H18.0434C18.0754 18.2227 18.1042 18.2422 18.1161 18.2719L19.0137 20.5144C19.0256 20.5441 19.0544 20.5636 19.0864 20.5636H20.1082C20.1643 20.5636 20.2022 20.5064 20.1804 20.4548L16.9889 12.9167C16.9767 12.8878 16.9483 12.8689 16.9168 12.8689H15.8832C15.8512 12.8689 15.8224 12.8885 15.8105 12.9183L12.8059 20.4563C12.7854 20.5077 12.8232 20.5636 12.8786 20.5636H13.8257C13.8583 20.5636 13.8875 20.5434 13.899 20.5129L14.7433 18.2734ZM15.9554 15.1102L15.1034 17.3077C15.0835 17.3591 15.1213 17.4144 15.1764 17.4144H17.775C17.7661 17.3918 17.7574 17.3694 17.7486 17.3472C17.1113 15.7233 16.7515 14.801 16.6691 14.58C16.5925 14.3715 16.5083 14.0997 16.4165 13.7647C16.4086 13.736 16.4007 13.7069 16.3927 13.6772C16.3922 13.6755 16.3917 13.6737 16.3913 13.672H16.364C16.3636 13.6744 16.3631 13.6768 16.3626 13.6792C16.3568 13.7085 16.3509 13.7378 16.3449 13.7669C16.2455 14.2485 16.1157 14.6963 15.9554 15.1102ZM16.473 14.2109C16.4491 14.133 16.3332 14.1361 16.313 14.215C16.2304 14.5374 16.1331 14.8437 16.0208 15.1336L15.2039 17.2405C15.184 17.2919 15.2218 17.3472 15.2769 17.3472H17.5592C17.6144 17.3472 17.6521 17.2912 17.632 17.2398C17.0269 15.6977 16.6839 14.8183 16.6035 14.6028C16.5621 14.4901 16.5186 14.3594 16.473 14.2109Z" fill="#444546"/>
<path fill-rule="evenodd" clip-rule="evenodd" d="M15.3422 4.71973C15.0394 4.71973 14.7939 4.96518 14.7939 5.26797C14.7939 5.57075 15.0394 5.81621 15.3422 5.81621C16.0809 5.81621 16.7906 6.20051 17.3465 6.90318C17.8007 7.4774 18.137 8.2493 18.2735 9.13378L17.7042 8.85826C17.4317 8.72636 17.1038 8.84038 16.9719 9.11292C16.84 9.38547 16.954 9.71333 17.2266 9.84523L18.5094 10.4661C18.9031 10.6566 19.3771 10.5219 19.6117 10.1528L20.406 8.90352C20.5685 8.648 20.493 8.30917 20.2375 8.14672C19.982 7.98427 19.6432 8.05971 19.4807 8.31522L19.2924 8.61143C19.0998 7.69754 18.7225 6.87533 18.2064 6.22288C17.4919 5.3198 16.4884 4.71973 15.3422 4.71973Z" fill="#444546"/>
<path fill-rule="evenodd" clip-rule="evenodd" d="M9.97471 20.3867C10.2775 20.3867 10.5229 20.1413 10.5229 19.8385C10.5229 19.5357 10.2775 19.2902 9.97471 19.2902C9.23599 19.2902 8.52634 18.9059 7.97044 18.2033C7.51616 17.629 7.17993 16.8571 7.04337 15.9727L7.61268 16.2482C7.88523 16.3801 8.21309 16.2661 8.34499 15.9935C8.47689 15.721 8.36288 15.3931 8.09033 15.2612L6.8075 14.6404C6.41381 14.4499 5.93984 14.5845 5.70518 14.9536L4.91089 16.2029C4.74844 16.4584 4.82388 16.7973 5.07939 16.9597C5.33491 17.1222 5.67374 17.0467 5.83619 16.7912L6.02452 16.495C6.2171 17.4089 6.59436 18.2311 7.11053 18.8836C7.82498 19.7866 8.82852 20.3867 9.97471 20.3867Z" fill="#444546"/>
</svg>
