<svg width="17" height="12" viewBox="0 0 17 12" fill="none" xmlns="http://www.w3.org/2000/svg">
<path d="M6.16 11L3.696 7.052H2.562V11H0.966V1.116H4.452C5.58133 1.116 6.43533 1.39133 7.014 1.942C7.602 2.49267 7.896 3.22067 7.896 4.126C7.896 4.90067 7.67667 5.53533 7.238 6.03C6.80867 6.52467 6.18333 6.842 5.362 6.982L7.952 11H6.16ZM2.562 5.918H4.326C5.614 5.918 6.258 5.34867 6.258 4.21C6.258 3.66867 6.09933 3.24867 5.782 2.95C5.474 2.642 4.98867 2.488 4.326 2.488H2.562V5.918ZM16.2292 8.368C16.2292 8.85333 16.1125 9.306 15.8792 9.726C15.6459 10.1367 15.2912 10.468 14.8152 10.72C14.3392 10.972 13.7559 11.098 13.0652 11.098C12.3932 11.098 11.7912 10.9813 11.2592 10.748C10.7272 10.5053 10.3025 10.1693 9.98519 9.74C9.66785 9.31067 9.48585 8.816 9.43919 8.256H11.1472C11.1939 8.68533 11.3759 9.054 11.6932 9.362C12.0199 9.67 12.4539 9.824 12.9952 9.824C13.4805 9.824 13.8539 9.69333 14.1152 9.432C14.3859 9.17067 14.5212 8.83467 14.5212 8.424C14.5212 8.06933 14.4232 7.78 14.2272 7.556C14.0312 7.32267 13.7885 7.14067 13.4992 7.01C13.2099 6.87933 12.8132 6.73 12.3092 6.562C11.6932 6.366 11.1892 6.17 10.7972 5.974C10.4145 5.778 10.0879 5.49333 9.81719 5.12C9.54652 4.74667 9.41119 4.25667 9.41119 3.65C9.41119 3.118 9.54185 2.65133 9.80319 2.25C10.0645 1.84867 10.4379 1.54067 10.9232 1.326C11.4085 1.102 11.9685 0.99 12.6032 0.99C13.6112 0.99 14.4092 1.23267 14.9972 1.718C15.5945 2.20333 15.9352 2.838 16.0192 3.622H14.2972C14.2319 3.24867 14.0545 2.93133 13.7652 2.67C13.4852 2.39933 13.0979 2.264 12.6032 2.264C12.1552 2.264 11.7959 2.38067 11.5252 2.614C11.2545 2.838 11.1192 3.16467 11.1192 3.594C11.1192 3.93 11.2125 4.21 11.3992 4.434C11.5859 4.64867 11.8192 4.82133 12.0992 4.952C12.3885 5.07333 12.7805 5.218 13.2752 5.386C13.9005 5.582 14.4092 5.78267 14.8012 5.988C15.2025 6.184 15.5385 6.47333 15.8092 6.856C16.0892 7.23867 16.2292 7.74267 16.2292 8.368Z" fill="#072C8E"/>
</svg>
