<svg width="19" height="19" viewBox="0 0 19 19" fill="none" xmlns="http://www.w3.org/2000/svg">
<path fill-rule="evenodd" clip-rule="evenodd" d="M9.32806 0.481445C14.1015 0.481445 17.9843 4.27859 17.9843 8.94679C17.9843 11.1492 17.12 13.158 15.7057 14.6655L18.4887 17.3814C18.7491 17.6361 18.75 18.0482 18.4896 18.3029C18.3598 18.4316 18.1882 18.495 18.0176 18.495C17.8478 18.495 17.6771 18.4316 17.5464 18.3046L14.7299 15.5579C13.2482 16.7183 11.3696 17.413 9.32806 17.413C4.55457 17.413 0.670898 13.615 0.670898 8.94679C0.670898 4.27859 4.55457 0.481445 9.32806 0.481445ZM9.32806 1.78541C5.28971 1.78541 2.00427 4.99751 2.00427 8.94679C2.00427 12.8961 5.28971 16.109 9.32806 16.109C13.3655 16.109 16.651 12.8961 16.651 8.94679C16.651 4.99751 13.3655 1.78541 9.32806 1.78541Z" fill="#444546"/>
<path d="M11.8867 9.65143H9.87314V11.6475C9.87314 11.9689 9.61032 12.2295 9.28612 12.2295C8.96191 12.2295 8.69909 11.9689 8.69909 11.6475V9.65143H6.68554C6.38313 9.62039 6.15332 9.36776 6.15332 9.06637C6.15332 8.76498 6.38313 8.51235 6.68554 8.48131H8.69278V6.49147C8.7241 6.19168 8.97893 5.96387 9.28296 5.96387C9.58699 5.96387 9.84182 6.19168 9.87314 6.49147V8.48131H11.8867C12.1891 8.51235 12.4189 8.76498 12.4189 9.06637C12.4189 9.36776 12.1891 9.62039 11.8867 9.65143Z" fill="#444546"/>
</svg>
