<svg width="19" height="19" viewBox="0 0 19 19" fill="none" xmlns="http://www.w3.org/2000/svg">
<path d="M10.7571 11.3914H11.5089L9.54309 5.96387H8.72073L6.74707 11.3914H7.49894L7.93753 10.1775H10.3185L10.7571 11.3914ZM10.1148 9.59791H8.14116L9.128 6.84105L10.1148 9.59791Z" fill="#444546"/>
<path fill-rule="evenodd" clip-rule="evenodd" d="M9.1386 0.481445C13.9121 0.481445 17.7949 4.27859 17.7949 8.94679C17.7949 11.1492 16.9306 13.158 15.5163 14.6655L18.2992 17.3814C18.5597 17.6361 18.5606 18.0482 18.3001 18.3029C18.1703 18.4316 17.9988 18.495 17.8281 18.495C17.6583 18.495 17.4877 18.4316 17.357 18.3046L14.5404 15.5579C13.0588 16.7183 11.1802 17.413 9.1386 17.413C4.36512 17.413 0.481445 13.615 0.481445 8.94679C0.481445 4.27859 4.36512 0.481445 9.1386 0.481445ZM9.1386 1.78541C5.10026 1.78541 1.81482 4.99751 1.81482 8.94679C1.81482 12.8961 5.10026 16.109 9.1386 16.109C13.1761 16.109 16.4615 12.8961 16.4615 8.94679C16.4615 4.99751 13.1761 1.78541 9.1386 1.78541Z" fill="#444546"/>
</svg>
