<svg width="19" height="19" viewBox="0 0 19 19" fill="none" xmlns="http://www.w3.org/2000/svg">
<path fill-rule="evenodd" clip-rule="evenodd" d="M8.94915 0.481445C13.7226 0.481445 17.6054 4.27859 17.6054 8.94679C17.6054 11.1492 16.7411 13.158 15.3268 14.6655L18.1098 17.3814C18.3702 17.6361 18.3711 18.0482 18.1107 18.3029C17.9809 18.4316 17.8093 18.495 17.6387 18.495C17.4689 18.495 17.2982 18.4316 17.1675 18.3046L14.351 15.5579C12.8693 16.7183 10.9907 17.413 8.94915 17.413C4.17567 17.413 0.291992 13.615 0.291992 8.94679C0.291992 4.27859 4.17567 0.481445 8.94915 0.481445ZM8.94915 1.78541C4.9108 1.78541 1.62537 4.99751 1.62537 8.94679C1.62537 12.8961 4.9108 16.109 8.94915 16.109C12.9866 16.109 16.272 12.8961 16.272 8.94679C16.272 4.99751 12.9866 1.78541 8.94915 1.78541Z" fill="#444546"/>
<path d="M9.49423 9.65157H11.5078C11.8102 9.62052 12.04 9.3679 12.04 9.06651C12.04 8.76512 11.8102 8.51249 11.5078 8.48145H8.31387H6.30663C6.00422 8.51249 5.77441 8.76512 5.77441 9.06651C5.77441 9.3679 6.00422 9.62052 6.30663 9.65157H9.49423Z" fill="#444546"/>
</svg>
