<svg width="25" height="25" viewBox="0 0 25 25" fill="none" xmlns="http://www.w3.org/2000/svg">
<path d="M14.1895 11.6783C14.1895 11.4908 14.1267 11.3315 14.001 11.2002C13.8754 11.069 13.7228 11.0033 13.5433 11.0033H6.22044C6.04095 11.0033 5.88839 11.069 5.76276 11.2002C5.63712 11.3315 5.5743 11.4908 5.5743 11.6783V13.0283C5.5743 13.2158 5.63712 13.3752 5.76276 13.5064C5.88839 13.6376 6.04095 13.7033 6.22044 13.7033C6.39992 13.7033 6.55248 13.6376 6.67812 13.5064C6.80376 13.3752 6.86658 13.2158 6.86658 13.0283V12.3533H9.23575V18.6531H8.37423C8.19475 18.6531 8.04219 18.7187 7.91655 18.85C7.79092 18.9812 7.7281 19.1406 7.7281 19.3281C7.7281 19.5156 7.79092 19.675 7.91655 19.8062C8.04219 19.9375 8.19475 20.0031 8.37423 20.0031H11.3896C11.569 20.0031 11.7216 19.9375 11.8472 19.8062C11.9729 19.675 12.0357 19.5156 12.0357 19.3281C12.0357 19.1406 11.9729 18.9812 11.8472 18.85C11.7216 18.7187 11.569 18.6531 11.3896 18.6531H10.528V12.3533H12.8972V13.0283C12.8972 13.2158 12.96 13.3752 13.0857 13.5064C13.2113 13.6376 13.3639 13.7033 13.5433 13.7033C13.7228 13.7033 13.8754 13.6376 14.001 13.5064C14.1267 13.3752 14.1895 13.2158 14.1895 13.0283V11.6783ZM21.2383 6.27849C21.2383 6.091 21.1755 5.93163 21.0498 5.80038C20.9242 5.66914 20.7716 5.60352 20.5921 5.60352H11.5462C11.3667 5.60352 11.2141 5.66914 11.0885 5.80038C10.9629 5.93163 10.9001 6.091 10.9001 6.27849V8.52843C10.9001 8.71592 10.9629 8.87529 11.0885 9.00654C11.2141 9.13778 11.3667 9.20341 11.5462 9.20341C11.7257 9.20341 11.8782 9.13778 12.0039 9.00654C12.1295 8.87529 12.1923 8.71592 12.1923 8.52843V6.95347H15.423V18.6531H14.1307C13.9513 18.6531 13.7987 18.7187 13.6731 18.85C13.5474 18.9812 13.4846 19.1406 13.4846 19.3281C13.4846 19.5156 13.5474 19.675 13.6731 19.8062C13.7987 19.9375 13.9513 20.0031 14.1307 20.0031H18.0076C18.1871 20.0031 18.3396 19.9375 18.4653 19.8062C18.5909 19.675 18.6537 19.5156 18.6537 19.3281C18.6537 19.1406 18.5909 18.9812 18.4653 18.85C18.3396 18.7187 18.1871 18.6531 18.0076 18.6531H16.7153V6.95347H19.946V8.52843C19.946 8.71592 20.0088 8.87529 20.1345 9.00654C20.2601 9.13778 20.4127 9.20341 20.5921 9.20341C20.7716 9.20341 20.9242 9.13778 21.0498 9.00654C21.1755 8.87529 21.2383 8.71592 21.2383 8.52843V6.27849Z" fill="#444546"/>
</svg>
