<svg width="73" height="11" viewBox="0 0 73 11" fill="none" xmlns="http://www.w3.org/2000/svg">
<path d="M3.58903 0.675937C4.66044 0.675937 5.58618 0.878002 6.36625 1.28213C7.15571 1.67687 7.75721 2.24547 8.17074 2.98794C8.59367 3.73041 8.80513 4.60446 8.80513 5.61009C8.80513 6.61572 8.59367 7.48977 8.17074 8.23224C7.75721 8.96532 7.15571 9.52922 6.36625 9.92395C5.58618 10.3093 4.66044 10.502 3.58903 10.502H0.52985V0.675937H3.58903ZM3.58903 9.44463C4.85781 9.44463 5.82584 9.11099 6.49313 8.44371C7.16041 7.76702 7.49406 6.82248 7.49406 5.61009C7.49406 4.3883 7.15571 3.43436 6.47903 2.74828C5.81174 2.0622 4.84841 1.71916 3.58903 1.71916H1.81273V9.44463H3.58903ZM9.86132 6.61102C9.86132 5.82156 10.0211 5.13077 10.3406 4.53868C10.6602 3.93718 11.0972 3.47196 11.6517 3.14301C12.2156 2.81407 12.8406 2.6496 13.5267 2.6496C14.2034 2.6496 14.7908 2.79527 15.2889 3.08662C15.787 3.37797 16.1582 3.74451 16.4026 4.18624V2.77648H17.6996V10.502H16.4026V9.064C16.1488 9.51512 15.7682 9.89106 15.2607 10.1918C14.7626 10.4832 14.1799 10.6288 13.5126 10.6288C12.8265 10.6288 12.2062 10.4597 11.6517 10.1213C11.0972 9.78298 10.6602 9.30836 10.3406 8.69746C10.0211 8.08657 9.86132 7.39109 9.86132 6.61102ZM16.4026 6.62512C16.4026 6.04242 16.2851 5.5349 16.0502 5.10258C15.8152 4.67025 15.4957 4.34131 15.0915 4.11575C14.6968 3.88079 14.2598 3.76331 13.7805 3.76331C13.3011 3.76331 12.8641 3.87609 12.4694 4.10165C12.0746 4.32721 11.7598 4.65615 11.5248 5.08848C11.2899 5.52081 11.1724 6.02832 11.1724 6.61102C11.1724 7.20312 11.2899 7.72003 11.5248 8.16175C11.7598 8.59408 12.0746 8.92772 12.4694 9.16268C12.8641 9.38824 13.3011 9.50102 13.7805 9.50102C14.2598 9.50102 14.6968 9.38824 15.0915 9.16268C15.4957 8.92772 15.8152 8.59408 16.0502 8.16175C16.2851 7.72003 16.4026 7.20782 16.4026 6.62512ZM20.9938 4.03116C21.2193 3.58944 21.5389 3.2464 21.9524 3.00204C22.3753 2.75768 22.8875 2.6355 23.489 2.6355V3.96067H23.1507C21.7127 3.96067 20.9938 4.74074 20.9938 6.30087V10.502H19.7109V2.77648H20.9938V4.03116ZM29.1272 10.502L26.0962 7.09034V10.502H24.8133V0.069741H26.0962V6.20219L29.0708 2.77648H30.8612L27.224 6.62512L30.8753 10.502H29.1272ZM45.4808 0.746425V10.502H44.1979V3.2276L40.9554 10.502H40.0532L36.7966 3.2135V10.502H35.5138V0.746425H36.8953L40.5043 8.81024L44.1133 0.746425H45.4808ZM50.8691 10.6288C50.1454 10.6288 49.4875 10.4644 48.8954 10.1354C48.3127 9.80647 47.8522 9.34125 47.5139 8.73976C47.1849 8.12886 47.0204 7.42398 47.0204 6.62512C47.0204 5.83565 47.1896 5.14017 47.528 4.53868C47.8757 3.92778 48.3456 3.46256 48.9377 3.14301C49.5298 2.81407 50.1924 2.6496 50.9255 2.6496C51.6586 2.6496 52.3211 2.81407 52.9132 3.14301C53.5053 3.46256 53.9706 3.92308 54.3089 4.52458C54.6566 5.12607 54.8305 5.82625 54.8305 6.62512C54.8305 7.42398 54.6519 8.12886 54.2948 8.73976C53.9471 9.34125 53.4724 9.80647 52.8709 10.1354C52.2695 10.4644 51.6022 10.6288 50.8691 10.6288ZM50.8691 9.50102C51.3296 9.50102 51.7619 9.39294 52.1661 9.17678C52.5702 8.96062 52.8944 8.63637 53.1388 8.20405C53.3926 7.77172 53.5194 7.24541 53.5194 6.62512C53.5194 6.00482 53.3973 5.47851 53.1529 5.04619C52.9085 4.61386 52.589 4.29432 52.1943 4.08755C51.7995 3.87139 51.3719 3.76331 50.9114 3.76331C50.4415 3.76331 50.0091 3.87139 49.6144 4.08755C49.2291 4.29432 48.9189 4.61386 48.684 5.04619C48.449 5.47851 48.3315 6.00482 48.3315 6.62512C48.3315 7.25481 48.4443 7.78582 48.6699 8.21814C48.9048 8.65047 49.215 8.97471 49.6003 9.19088C49.9856 9.39764 50.4086 9.50102 50.8691 9.50102ZM55.8813 6.61102C55.8813 5.82156 56.0411 5.13077 56.3606 4.53868C56.6802 3.93718 57.1172 3.47196 57.6717 3.14301C58.2356 2.81407 58.8653 2.6496 59.5608 2.6496C60.1623 2.6496 60.7215 2.79057 61.2384 3.07253C61.7553 3.34508 62.15 3.70692 62.4226 4.15804V0.069741H63.7196V10.502H62.4226V9.0499C62.1688 9.51042 61.7929 9.89106 61.2948 10.1918C60.7967 10.4832 60.214 10.6288 59.5467 10.6288C58.8606 10.6288 58.2356 10.4597 57.6717 10.1213C57.1172 9.78298 56.6802 9.30836 56.3606 8.69746C56.0411 8.08657 55.8813 7.39109 55.8813 6.61102ZM62.4226 6.62512C62.4226 6.04242 62.3051 5.5349 62.0701 5.10258C61.8352 4.67025 61.5156 4.34131 61.1115 4.11575C60.7168 3.88079 60.2798 3.76331 59.8004 3.76331C59.3211 3.76331 58.8841 3.87609 58.4894 4.10165C58.0946 4.32721 57.7798 4.65615 57.5448 5.08848C57.3099 5.52081 57.1924 6.02832 57.1924 6.61102C57.1924 7.20312 57.3099 7.72003 57.5448 8.16175C57.7798 8.59408 58.0946 8.92772 58.4894 9.16268C58.8841 9.38824 59.3211 9.50102 59.8004 9.50102C60.2798 9.50102 60.7168 9.38824 61.1115 9.16268C61.5156 8.92772 61.8352 8.59408 62.0701 8.16175C62.3051 7.72003 62.4226 7.20782 62.4226 6.62512ZM72.7797 6.34317C72.7797 6.58752 72.7656 6.84598 72.7374 7.11853H66.5626C66.6096 7.8798 66.8681 8.4766 67.338 8.90893C67.8173 9.33185 68.3953 9.54332 69.072 9.54332C69.6265 9.54332 70.087 9.41644 70.4536 9.16268C70.8295 8.89953 71.0927 8.55179 71.243 8.11946H72.6246C72.4178 8.86193 72.0043 9.46813 71.384 9.93805C70.7637 10.3986 69.993 10.6288 69.072 10.6288C68.3389 10.6288 67.681 10.4644 67.0983 10.1354C66.525 9.80647 66.0739 9.34125 65.745 8.73976C65.416 8.12886 65.2516 7.42398 65.2516 6.62512C65.2516 5.82625 65.4113 5.12607 65.7309 4.52458C66.0504 3.92308 66.4968 3.46256 67.0701 3.14301C67.6528 2.81407 68.3201 2.6496 69.072 2.6496C69.8051 2.6496 70.4536 2.80937 71.0175 3.12892C71.5814 3.44846 72.0137 3.89019 72.3144 4.45409C72.6246 5.00859 72.7797 5.63829 72.7797 6.34317ZM71.4545 6.07531C71.4545 5.5866 71.3464 5.16837 71.1302 4.82063C70.9141 4.46349 70.618 4.19563 70.2421 4.01706C69.8756 3.8291 69.4667 3.73511 69.0156 3.73511C68.3671 3.73511 67.8126 3.94188 67.3521 4.35541C66.901 4.76894 66.6425 5.34224 66.5767 6.07531H71.4545Z" fill="#444546"/>
</svg>
