<svg width="27" height="16" viewBox="0 0 27 16" fill="none" xmlns="http://www.w3.org/2000/svg">
<path d="M7.10348 0.460759C7.91174 0.460759 8.64951 0.597036 9.3168 0.869589C9.99348 1.13274 10.5339 1.54157 10.938 2.09608C11.3422 2.64119 11.5442 3.31317 11.5442 4.11203V4.35169H10.3882V4.12613C10.3882 3.48704 10.2237 2.96543 9.8948 2.5613C9.56586 2.15717 9.15233 1.87052 8.65421 1.70135C8.1561 1.52278 7.63919 1.43349 7.10348 1.43349C6.20123 1.43349 5.42586 1.63086 4.77738 2.02559C4.13829 2.41092 3.81404 3.09231 3.80464 4.06974H5.66552V5.05657H3.81874V14.502H2.63454V5.05657H0.773662V4.06974H2.63454C2.65334 2.83855 3.08097 1.93161 3.91742 1.34891C4.75388 0.756808 5.8159 0.460759 7.10348 0.460759ZM9.35832 7.56594C8.9166 7.56594 8.55476 7.65993 8.27281 7.84789C7.99085 8.02646 7.84988 8.31311 7.84988 8.70785C7.84988 8.9992 7.93916 9.24355 8.11773 9.44092C8.2963 9.63829 8.54066 9.77926 8.85081 9.86385C9.11396 9.81686 9.37712 9.79336 9.64027 9.79336C10.5519 9.79336 11.2662 10.0189 11.7831 10.47C12.3094 10.9118 12.629 11.4616 12.7417 12.1195H11.6139C11.5199 11.7529 11.2991 11.4334 10.9513 11.1608C10.613 10.8789 10.1666 10.7379 9.61208 10.7379C8.95419 10.7379 8.43728 10.94 8.06134 11.3441C7.6948 11.7482 7.51154 12.2557 7.51154 12.8666C7.51154 13.4869 7.6948 13.9944 8.06134 14.3892C8.43728 14.7839 8.95419 14.9813 9.61208 14.9813C10.1572 14.9813 10.5989 14.845 10.9372 14.5724C11.285 14.3093 11.5106 13.9944 11.6139 13.6279H12.7417C12.676 14.0508 12.5068 14.4409 12.2342 14.798C11.9711 15.1551 11.6139 15.4371 11.1628 15.6439C10.7211 15.86 10.2042 15.9681 9.61208 15.9681C8.93539 15.9681 8.34799 15.8318 7.84988 15.5593C7.36116 15.2867 6.98993 14.9155 6.73617 14.4456C6.48241 13.9756 6.35553 13.4446 6.35553 12.8525C6.35553 12.2604 6.48711 11.7341 6.75027 11.2736C7.02282 10.8131 7.39876 10.4559 7.87807 10.2022C7.52093 10.0518 7.23428 9.83095 7.01812 9.5396C6.80196 9.24825 6.69388 8.90051 6.69388 8.49638C6.69388 7.91368 6.90064 7.47196 7.31417 7.17121C7.7371 6.86106 8.2916 6.70599 8.97768 6.70599H10.8245V5.05657H4.91758V4.06974H13.9259V5.05657H11.9382V7.56594H9.35832ZM14.072 0.941006C14.072 1.15717 13.9921 1.34514 13.8323 1.50491C13.6819 1.65528 13.4987 1.73047 13.2825 1.73047C13.057 1.73047 12.8643 1.65528 12.7045 1.50491C12.5541 1.34514 12.479 1.15717 12.479 0.941006C12.479 0.724843 12.5541 0.541574 12.7045 0.391199C12.8643 0.231427 13.057 0.151541 13.2825 0.151541C13.4987 0.151541 13.6819 0.231427 13.8323 0.391199C13.9921 0.541574 14.072 0.724843 14.072 0.941006ZM18.394 7.62233C17.6233 7.62233 16.9889 7.8244 16.4908 8.22853C15.9927 8.63266 15.7436 9.20596 15.7436 9.94843C15.7436 10.6157 15.941 11.1514 16.3357 11.5556C16.7399 11.9597 17.2803 12.1618 17.957 12.1618C18.2859 12.1618 18.6008 12.0913 18.9015 11.9503C19.2116 11.8093 19.4654 11.5979 19.6628 11.3159C19.8601 11.0245 19.9588 10.6674 19.9588 10.2445H21.0443V14.7275H19.8883V12.0208C19.691 12.3497 19.3902 12.6129 18.9861 12.8102C18.5914 13.0076 18.1449 13.1063 17.6468 13.1063C17.0453 13.1063 16.5096 12.9794 16.0397 12.7257C15.5698 12.4719 15.2032 12.1054 14.9401 11.626C14.6769 11.1467 14.5453 10.5734 14.5453 9.90614C14.5453 9.19186 14.7098 8.59037 15.0388 8.10165C15.3677 7.60354 15.8141 7.2323 16.378 6.98794C16.9513 6.73418 17.5904 6.60731 18.2953 6.60731H19.3103V5.05657H13.1779V4.06974H22.5246L22.5105 5.05657H20.4804V7.62233H18.394ZM26.6605 4.06974V5.05657H24.8137V14.502H23.6295V5.05657H21.7686V4.06974H23.6577V3.47764C23.6577 2.89494 23.5449 2.41092 23.3193 2.02559C23.0938 1.64026 22.7084 1.44759 22.1633 1.44759C21.6088 1.44759 21.2188 1.64026 20.9932 2.02559C20.7583 2.41092 20.6408 2.89494 20.6408 3.47764V4.35169H19.4848V3.53403C19.4848 2.60359 19.701 1.86112 20.1333 1.30661C20.5562 0.742711 21.2329 0.460759 22.1633 0.460759C23.1032 0.460759 23.7799 0.738012 24.1934 1.29252C24.6069 1.84702 24.8137 2.59419 24.8137 3.53403V4.06974H26.6605Z" fill="#444546"/>
</svg>
