<svg width="93" height="12" viewBox="0 0 93 12" fill="none" xmlns="http://www.w3.org/2000/svg">
<path d="M10.6638 1.74642V11.502H9.38095V4.2276L6.13851 11.502H5.23626L1.97972 4.2135V11.502H0.696842V1.74642H2.07841L5.68739 9.81024L9.29637 1.74642H10.6638ZM12.2035 7.61102C12.2035 6.82156 12.3633 6.13077 12.6828 5.53868C13.0024 4.93718 13.4394 4.47196 13.9939 4.14301C14.5578 3.81407 15.1828 3.6496 15.8689 3.6496C16.5456 3.6496 17.133 3.79527 17.6311 4.08662C18.1292 4.37797 18.5005 4.74451 18.7448 5.18624V3.77648H20.0418V11.502H18.7448V10.064C18.4911 10.5151 18.1104 10.8911 17.6029 11.1918C17.1048 11.4832 16.5221 11.6288 15.8548 11.6288C15.1687 11.6288 14.5484 11.4597 13.9939 11.1213C13.4394 10.783 13.0024 10.3084 12.6828 9.69746C12.3633 9.08657 12.2035 8.39109 12.2035 7.61102ZM18.7448 7.62512C18.7448 7.04242 18.6273 6.5349 18.3924 6.10258C18.1574 5.67025 17.8379 5.34131 17.4337 5.11575C17.039 4.88079 16.602 4.76331 16.1227 4.76331C15.6433 4.76331 15.2063 4.87609 14.8116 5.10165C14.4169 5.32721 14.102 5.65615 13.867 6.08848C13.6321 6.52081 13.5146 7.02832 13.5146 7.61102C13.5146 8.20312 13.6321 8.72003 13.867 9.16175C14.102 9.59408 14.4169 9.92772 14.8116 10.1627C15.2063 10.3882 15.6433 10.501 16.1227 10.501C16.602 10.501 17.039 10.3882 17.4337 10.1627C17.8379 9.92772 18.1574 9.59408 18.3924 9.16175C18.6273 8.72003 18.7448 8.20782 18.7448 7.62512ZM22.7157 2.52179C22.4713 2.52179 22.2646 2.43721 22.0954 2.26804C21.9262 2.09886 21.8416 1.8921 21.8416 1.64774C21.8416 1.40338 21.9262 1.19662 22.0954 1.02745C22.2646 0.858277 22.4713 0.773691 22.7157 0.773691C22.9506 0.773691 23.148 0.858277 23.3078 1.02745C23.4769 1.19662 23.5615 1.40338 23.5615 1.64774C23.5615 1.8921 23.4769 2.09886 23.3078 2.26804C23.148 2.43721 22.9506 2.52179 22.7157 2.52179ZM23.336 3.77648V11.502H22.0531V3.77648H23.336ZM29.1298 3.6355C30.0697 3.6355 30.8309 3.92215 31.4136 4.49545C31.9963 5.05936 32.2877 5.87702 32.2877 6.94843V11.502H31.0189V7.1317C31.0189 6.36103 30.8262 5.77363 30.4409 5.3695C30.0556 4.95597 29.5293 4.74921 28.862 4.74921C28.1853 4.74921 27.6449 4.96067 27.2408 5.3836C26.846 5.80653 26.6487 6.42212 26.6487 7.23039V11.502H25.3658V3.77648H26.6487V4.87609C26.9024 4.48136 27.2455 4.17591 27.6778 3.95975C28.1195 3.74358 28.6035 3.6355 29.1298 3.6355ZM37.3491 6.5819C37.3491 5.62326 37.5653 4.76331 37.9976 4.00204C38.4299 3.23137 39.0173 2.62987 39.7598 2.19755C40.5117 1.76522 41.3434 1.54906 42.2551 1.54906C43.3265 1.54906 44.2616 1.80751 45.0605 2.32443C45.8594 2.84134 46.4421 3.57441 46.8086 4.52365H45.272C44.9994 3.93155 44.6047 3.47573 44.0878 3.15618C43.5802 2.83664 42.9694 2.67687 42.2551 2.67687C41.569 2.67687 40.9534 2.83664 40.4083 3.15618C39.8632 3.47573 39.4356 3.93155 39.1254 4.52365C38.8153 5.10635 38.6602 5.79243 38.6602 6.5819C38.6602 7.36196 38.8153 8.04805 39.1254 8.64014C39.4356 9.22284 39.8632 9.67397 40.4083 9.99351C40.9534 10.3131 41.569 10.4728 42.2551 10.4728C42.9694 10.4728 43.5802 10.3178 44.0878 10.0076C44.6047 9.68806 44.9994 9.23224 45.272 8.64014H46.8086C46.4421 9.57998 45.8594 10.3084 45.0605 10.8253C44.2616 11.3328 43.3265 11.5865 42.2551 11.5865C41.3434 11.5865 40.5117 11.3751 39.7598 10.9521C39.0173 10.5198 38.4299 9.92302 37.9976 9.16175C37.5653 8.40048 37.3491 7.54053 37.3491 6.5819ZM51.9309 11.6288C51.2073 11.6288 50.5494 11.4644 49.9573 11.1354C49.3746 10.8065 48.9141 10.3413 48.5757 9.73976C48.2468 9.12886 48.0823 8.42398 48.0823 7.62512C48.0823 6.83565 48.2515 6.14017 48.5898 5.53868C48.9376 4.92778 49.4075 4.46256 49.9996 4.14301C50.5917 3.81407 51.2543 3.6496 51.9873 3.6496C52.7204 3.6496 53.383 3.81407 53.9751 4.14301C54.5672 4.46256 55.0324 4.92308 55.3708 5.52458C55.7185 6.12607 55.8924 6.82625 55.8924 7.62512C55.8924 8.42398 55.7138 9.12886 55.3567 9.73976C55.0089 10.3413 54.5343 10.8065 53.9328 11.1354C53.3313 11.4644 52.664 11.6288 51.9309 11.6288ZM51.9309 10.501C52.3915 10.501 52.8238 10.3929 53.2279 10.1768C53.6321 9.96062 53.9563 9.63637 54.2007 9.20405C54.4544 8.77172 54.5813 8.24541 54.5813 7.62512C54.5813 7.00482 54.4591 6.47851 54.2148 6.04619C53.9704 5.61386 53.6509 5.29432 53.2561 5.08755C52.8614 4.87139 52.4338 4.76331 51.9732 4.76331C51.5033 4.76331 51.071 4.87139 50.6763 5.08755C50.2909 5.29432 49.9808 5.61386 49.7458 6.04619C49.5109 6.47851 49.3934 7.00482 49.3934 7.62512C49.3934 8.25481 49.5062 8.78582 49.7317 9.21814C49.9667 9.65047 50.2768 9.97471 50.6622 10.1909C51.0475 10.3976 51.4704 10.501 51.9309 10.501ZM61.1865 3.6355C62.1264 3.6355 62.8876 3.92215 63.4703 4.49545C64.053 5.05936 64.3444 5.87702 64.3444 6.94843V11.502H63.0756V7.1317C63.0756 6.36103 62.8829 5.77363 62.4976 5.3695C62.1123 4.95597 61.586 4.74921 60.9187 4.74921C60.242 4.74921 59.7016 4.96067 59.2975 5.3836C58.9027 5.80653 58.7054 6.42212 58.7054 7.23039V11.502H57.4225V3.77648H58.7054V4.87609C58.9591 4.48136 59.3022 4.17591 59.7345 3.95975C60.1762 3.74358 60.6602 3.6355 61.1865 3.6355ZM67.8482 4.8338V9.38732C67.8482 9.76325 67.9281 10.0311 68.0878 10.1909C68.2476 10.3413 68.5249 10.4164 68.9196 10.4164H69.8641V11.502H68.7081C67.9939 11.502 67.4581 11.3375 67.101 11.0085C66.7439 10.6796 66.5653 10.1392 66.5653 9.38732V4.8338H65.5644V3.77648H66.5653V1.83101H67.8482V3.77648H69.8641V4.8338H67.8482ZM78.3107 7.34317C78.3107 7.58752 78.2966 7.84598 78.2684 8.11853H72.0936C72.1406 8.8798 72.3991 9.4766 72.869 9.90893C73.3483 10.3319 73.9263 10.5433 74.603 10.5433C75.1575 10.5433 75.618 10.4164 75.9846 10.1627C76.3605 9.89953 76.6236 9.55179 76.774 9.11946H78.1556C77.9488 9.86193 77.5353 10.4681 76.915 10.938C76.2947 11.3986 75.524 11.6288 74.603 11.6288C73.8699 11.6288 73.212 11.4644 72.6293 11.1354C72.056 10.8065 71.6049 10.3413 71.276 9.73976C70.947 9.12886 70.7825 8.42398 70.7825 7.62512C70.7825 6.82625 70.9423 6.12607 71.2619 5.52458C71.5814 4.92308 72.0278 4.46256 72.6011 4.14301C73.1838 3.81407 73.8511 3.6496 74.603 3.6496C75.3361 3.6496 75.9846 3.80937 76.5485 4.12892C77.1124 4.44846 77.5447 4.89019 77.8454 5.45409C78.1556 6.00859 78.3107 6.63829 78.3107 7.34317ZM76.9855 7.07531C76.9855 6.5866 76.8774 6.16837 76.6612 5.82063C76.4451 5.46349 76.149 5.19563 75.7731 5.01706C75.4065 4.8291 74.9977 4.73511 74.5466 4.73511C73.8981 4.73511 73.3436 4.94188 72.8831 5.35541C72.432 5.76894 72.1735 6.34224 72.1077 7.07531H76.9855ZM83.6114 3.6355C84.5513 3.6355 85.3125 3.92215 85.8952 4.49545C86.4779 5.05936 86.7693 5.87702 86.7693 6.94843V11.502H85.5005V7.1317C85.5005 6.36103 85.3078 5.77363 84.9225 5.3695C84.5372 4.95597 84.0109 4.74921 83.3436 4.74921C82.6669 4.74921 82.1265 4.96067 81.7223 5.3836C81.3276 5.80653 81.1303 6.42212 81.1303 7.23039V11.502H79.8474V3.77648H81.1303V4.87609C81.384 4.48136 81.727 4.17591 82.1594 3.95975C82.6011 3.74358 83.0851 3.6355 83.6114 3.6355ZM90.2731 4.8338V9.38732C90.2731 9.76325 90.3529 10.0311 90.5127 10.1909C90.6725 10.3413 90.9497 10.4164 91.3445 10.4164H92.289V11.502H91.133C90.4187 11.502 89.883 11.3375 89.5259 11.0085C89.1687 10.6796 88.9902 10.1392 88.9902 9.38732V4.8338H87.9892V3.77648H88.9902V1.83101H90.2731V3.77648H92.289V4.8338H90.2731Z" fill="#444546"/>
</svg>
